<svg xmlns="http://www.w3.org/2000/svg" width="1400" height="800" viewBox="0 0 1400 800" version="1.1">
	<path d="M 1005.082 452.790 C 1004.934 455.129, 1000.785 459.855, 999.360 459.308 C 998.401 458.940, 998.172 459.284, 998.611 460.430 C 998.960 461.338, 998.853 462.010, 998.373 461.922 C 996.158 461.518, 995.112 462.127, 995.643 463.511 C 996.049 464.570, 995.763 464.846, 994.688 464.434 C 992.480 463.586, 993.170 470.920, 995.456 472.591 C 997.013 473.730, 996.959 473.879, 994.831 474.293 C 992.548 474.737, 992.543 474.761, 994.610 475.453 C 996.247 476.002, 996.642 476.825, 996.373 479.130 C 996.141 481.128, 996.393 481.875, 997.143 481.411 C 997.812 480.998, 998.078 481.278, 997.808 482.111 C 997.559 482.875, 995.646 484.317, 993.557 485.315 C 990.022 487.003, 989.798 487.367, 990.317 490.565 C 990.623 492.454, 990.503 494, 990.048 494 C 989.594 494, 989.243 494.563, 989.269 495.250 C 989.396 498.685, 988.845 500, 987.277 500 C 985.830 500, 985.895 500.238, 987.685 501.492 C 988.857 502.313, 990.870 503.145, 992.158 503.342 C 993.446 503.538, 994.275 503.912, 994 504.171 C 993.725 504.431, 994.268 505.411, 995.208 506.350 C 998.229 509.372, 996.392 511, 989.961 511 C 984.625 511, 983.956 511.253, 981.992 514.012 C 980.812 515.668, 979.431 516.767, 978.924 516.453 C 978.416 516.139, 977.986 516.471, 977.970 517.191 C 977.952 517.946, 977.480 517.709, 976.853 516.630 C 975.374 514.085, 973.731 516.628, 975.145 519.272 C 976.033 520.931, 975.919 521.027, 974.176 520.094 C 971.943 518.899, 971 520.264, 971 524.689 C 971 526.498, 970.584 527.054, 969.532 526.651 C 968.725 526.341, 967.798 526.518, 967.473 527.044 C 967.148 527.570, 967.696 528.032, 968.691 528.070 C 970.424 528.138, 970.424 528.171, 968.676 528.859 C 966.624 529.668, 966.337 531.476, 968.250 531.545 C 968.938 531.570, 969.387 532.133, 969.250 532.795 C 969.112 533.458, 969.858 534, 970.906 534 C 972.370 534, 972.681 534.504, 972.246 536.169 C 971.802 537.866, 972.028 538.203, 973.288 537.720 C 974.472 537.265, 974.734 537.529, 974.279 538.715 C 973.867 539.789, 974.051 540.087, 974.830 539.605 C 976.596 538.514, 976.233 540.365, 974.250 542.561 C 971.468 545.644, 971.807 547.682, 975.025 547.210 C 978.431 546.710, 979.717 548.550, 977.598 550.892 C 975.046 553.712, 975.753 554.581, 978.500 552 C 980.606 550.022, 981 549.920, 981 551.358 C 981 552.296, 980.348 554.625, 979.551 556.532 C 978.248 559.651, 977.709 560, 974.190 560 C 970.587 560, 970.314 559.808, 970.741 557.573 C 971.109 555.649, 970.822 555.204, 969.353 555.424 C 968.334 555.576, 966.897 554.847, 966.160 553.803 C 965.105 552.309, 964.520 552.154, 963.410 553.075 C 962.295 554, 962 553.905, 962 552.622 C 962 551.580, 961.148 551, 959.617 551 C 958.012 551, 957.013 550.265, 956.558 548.750 C 955.904 546.570, 955.858 546.562, 955.067 548.500 C 954.618 549.600, 954.408 550.777, 954.602 551.116 C 954.795 551.455, 954.063 552.538, 952.976 553.521 C 951.889 554.505, 951 554.997, 951 554.616 C 951 554.234, 950.381 554.499, 949.625 555.205 C 948.869 555.912, 948.454 557.018, 948.702 557.665 C 948.990 558.417, 948.225 558.739, 946.576 558.558 C 944.629 558.344, 944 558.730, 944 560.138 C 944 561.162, 943.842 562, 943.649 562 C 942.172 562, 936.157 559.420, 934.707 558.164 C 933.244 556.898, 933.016 556.878, 933.469 558.059 C 933.774 558.854, 936.044 560.783, 938.514 562.345 C 940.983 563.908, 942.749 565.597, 942.438 566.100 C 942.127 566.603, 942.533 567.267, 943.338 567.576 C 944.347 567.963, 944.653 569.095, 944.320 571.208 C 943.902 573.860, 944.085 574.182, 945.668 573.579 C 947.137 573.020, 947.252 573.131, 946.250 574.141 C 944.244 576.161, 944.802 577.026, 947.460 576.015 C 949.787 575.131, 949.868 575.217, 948.960 577.605 C 948.432 578.994, 948 580.846, 948 581.720 C 948 583.141, 948.198 583.131, 949.857 581.630 C 951.455 580.183, 951.878 580.148, 952.900 581.379 C 953.610 582.235, 953.810 583.909, 953.397 585.553 C 952.938 587.382, 953.062 588.080, 953.769 587.643 C 954.362 587.276, 955.255 588.202, 955.795 589.744 L 956.762 592.500 957.856 589.750 C 958.458 588.237, 959.124 587, 959.337 587 C 959.549 587, 959.535 588.237, 959.306 589.750 L 958.890 592.500 960.410 590 L 961.929 587.500 962.055 590 C 962.166 592.220, 962.287 592.132, 963.128 589.214 C 963.649 587.407, 964.486 586.182, 964.988 586.492 C 965.489 586.802, 966.395 586.131, 967 585 C 967.605 583.869, 968.528 583.208, 969.050 583.531 C 969.573 583.854, 970 583.611, 970 582.991 C 970 582.354, 971.196 582.711, 972.750 583.812 C 974.837 585.291, 976.861 585.698, 981.148 585.502 C 984.254 585.361, 987.248 584.964, 987.803 584.622 C 988.357 584.280, 990.695 585.575, 993 587.500 C 995.304 589.425, 997.752 591, 998.440 591 C 999.127 591, 1000.547 591.952, 1001.595 593.115 C 1004.066 595.858, 1007.711 597.305, 1011.654 597.108 C 1013.388 597.021, 1015.497 597.640, 1016.340 598.483 C 1017.231 599.374, 1018.122 599.612, 1018.468 599.051 C 1018.796 598.521, 1019.725 598.341, 1020.532 598.651 C 1021.339 598.960, 1022 598.666, 1022 597.996 C 1022 597.326, 1022.788 597.699, 1023.750 598.825 C 1026.138 601.618, 1032.719 604.253, 1033.363 602.675 C 1033.626 602.029, 1033.873 603.750, 1033.910 606.500 C 1033.970 610.887, 1033.582 611.873, 1030.739 614.547 C 1028.958 616.222, 1025.475 618.444, 1023 619.484 C 1020.525 620.524, 1017.675 622.069, 1016.667 622.917 C 1015.631 623.790, 1012.807 624.494, 1010.167 624.539 C 1006.553 624.601, 1004.894 624.070, 1002.815 622.185 C 999.412 619.099, 995.569 619.835, 993.183 624.030 C 991.884 626.313, 990.788 626.989, 988.376 626.994 C 986.657 626.997, 983.338 627.675, 981 628.500 C 976.147 630.212, 968.066 630.453, 963.116 629.033 C 961.178 628.477, 959.055 628.434, 958.122 628.930 C 957.230 629.405, 952.900 630.322, 948.500 630.968 C 944.100 631.614, 938.926 632.630, 937.001 633.226 C 935.077 633.822, 931.590 634.280, 929.251 634.245 C 926.913 634.210, 925 634.604, 925 635.122 C 925 635.639, 924.212 636.341, 923.250 636.680 C 922.288 637.020, 920.584 638.119, 919.465 639.121 C 917.721 640.684, 916.907 640.784, 913.776 639.823 C 910.655 638.865, 909.391 639.016, 905.125 640.851 C 902.377 642.033, 898.541 643, 896.600 643 C 894.094 643, 892.760 643.580, 892 645 C 891.411 646.100, 890.158 646.993, 889.215 646.985 C 886.336 646.960, 880.601 644.625, 877.587 642.250 C 876.016 641.013, 874.057 640, 873.234 640 C 872.410 640, 869.722 642.015, 867.260 644.477 C 863.601 648.135, 862.446 648.774, 860.939 647.967 C 859.528 647.212, 858.651 647.458, 857.199 649.017 C 854.430 651.989, 849.114 653.301, 846.554 651.645 C 843.582 649.723, 839.223 648.830, 838.502 649.996 C 838.161 650.548, 836.994 651, 835.910 651 C 834.825 651, 833.678 651.675, 833.362 652.500 C 833.045 653.325, 832.040 654, 831.129 654 C 830.218 654, 828.406 655.725, 827.103 657.833 C 824.526 662.003, 824.130 662.150, 816 661.944 C 812.975 661.868, 809.048 661.770, 807.273 661.727 C 805.498 661.684, 803.213 662.402, 802.194 663.324 C 799.780 665.509, 797.779 665.438, 793 663 C 790.844 661.900, 787.323 661, 785.176 661 C 778.043 661, 770.597 659.093, 768.878 656.827 C 767.959 655.615, 766.619 654.932, 765.787 655.251 C 762.671 656.447, 762.301 655.440, 758.957 636.675 C 757.698 629.612, 757.670 621.924, 758.891 618.500 C 759.479 616.850, 761.351 610.612, 763.051 604.638 C 765.986 594.323, 766.081 593.438, 764.940 587.050 C 763.369 578.262, 764.425 575.221, 771.720 567.521 C 778.527 560.337, 782.467 558.061, 790.975 556.399 C 793.043 555.995, 800.915 546.858, 800.962 544.809 C 800.983 543.879, 801.450 542.840, 802 542.500 C 802.550 542.160, 803 540.934, 803 539.774 C 803 538.615, 803.284 537.951, 803.631 538.298 C 803.979 538.645, 805.139 538.461, 806.210 537.888 C 807.799 537.037, 808.056 536.126, 807.608 532.923 C 807.169 529.785, 807.374 529, 808.636 529 C 809.628 529, 810 528.443, 809.638 527.500 C 809.268 526.536, 809.677 525.976, 810.781 525.932 C 812.116 525.880, 811.998 525.622, 810.250 524.780 C 807.681 523.541, 807.283 521.212, 809.494 520.364 C 810.316 520.048, 810.740 519.388, 810.435 518.895 C 810.131 518.403, 810.546 518, 811.358 518 C 813.436 518, 813.965 515.713, 812.189 514.405 C 810.969 513.506, 811.133 513.326, 813.101 513.405 C 814.973 513.479, 815.505 512.984, 815.524 511.152 C 815.538 509.860, 816.411 508.172, 817.466 507.402 C 819.324 506.043, 819.315 506, 817.191 506 C 815.986 506, 815 505.501, 815 504.892 C 815 504.223, 814.054 504.021, 812.615 504.382 C 810.648 504.875, 810.146 504.543, 809.753 502.490 C 809.492 501.121, 809.665 500, 810.139 500 C 810.612 500, 811 499.529, 811 498.954 C 811 498.346, 809.114 498.005, 806.500 498.141 C 804.025 498.269, 802 498.795, 802 499.309 C 802 499.824, 801.382 499.732, 800.627 499.105 C 799.066 497.810, 796.008 498.635, 795.985 500.357 C 795.976 500.986, 795.533 500.825, 795 500 C 794.354 499, 794.026 498.917, 794.015 499.750 C 793.999 501.081, 788.417 501.481, 785.498 500.361 C 784.169 499.851, 784.102 499.551, 785.166 498.876 C 786.250 498.189, 786.230 498.028, 785.059 498.015 C 784.026 498.004, 784.167 497.585, 785.559 496.532 C 786.796 495.596, 787.017 495.052, 786.167 495.032 C 785.433 495.014, 785.029 494.438, 785.267 493.750 C 785.506 493.063, 784.875 491.435, 783.864 490.132 C 782.854 488.830, 782.300 487.323, 782.634 486.783 C 782.982 486.220, 782.378 486.262, 781.219 486.883 C 779.480 487.813, 779.266 487.700, 779.691 486.075 C 780.080 484.586, 779.104 483.688, 775.093 481.848 C 772.292 480.563, 770 479.258, 770 478.947 C 770 478.636, 769.313 477.509, 768.473 476.441 C 767.063 474.649, 766.995 474.864, 767.587 479.250 C 768.019 482.456, 767.865 484, 767.114 484 C 766.501 484, 766 484.637, 766 485.417 C 766 486.196, 765.609 486.983, 765.132 487.167 C 764.655 487.350, 763.972 488.440, 763.616 489.590 C 763.132 491.148, 763.543 491.957, 765.233 492.772 C 767.429 493.830, 767.406 493.869, 764.500 494 C 761.616 494.130, 761.586 494.177, 763.739 495.216 C 765.829 496.224, 765.862 496.384, 764.239 497.616 C 762.588 498.869, 762.589 498.938, 764.250 498.968 C 765.212 498.986, 766 499.661, 766 500.469 C 766 501.431, 766.577 501.716, 767.674 501.295 C 768.942 500.808, 769.192 501.058, 768.705 502.326 C 768.352 503.247, 768.430 504, 768.879 504 C 769.327 504, 770.140 504.998, 770.684 506.219 C 771.442 507.916, 771.214 509.218, 769.714 511.761 L 767.753 515.084 770.304 514.621 C 772.429 514.236, 772.790 514.494, 772.468 516.168 C 772.147 517.831, 772.333 517.969, 773.540 516.967 C 774.343 516.300, 775.014 516.148, 775.032 516.628 C 775.049 517.107, 775.771 516.600, 776.635 515.500 C 778.170 513.546, 778.190 513.555, 777.496 515.875 C 777.010 517.500, 777.136 518.034, 777.893 517.566 C 780.467 515.975, 778.732 521.564, 775 526.884 C 771.033 532.539, 771 532.664, 771 541.826 C 771 552.717, 770.009 555.400, 763.254 562.799 C 757.573 569.022, 756.603 568.952, 751.467 561.955 L 747.916 557.118 748.376 547.309 C 748.629 541.914, 749.299 536.012, 749.864 534.193 C 750.430 532.374, 750.644 530.236, 750.340 529.443 C 749.659 527.669, 751.126 527.560, 752.947 529.250 C 754.047 530.270, 754.181 530.179, 753.679 528.750 C 753.266 527.578, 753.568 527, 754.590 527 C 755.431 527, 755.840 526.550, 755.500 526 C 755.160 525.450, 755.471 524.984, 756.191 524.964 C 756.911 524.944, 756.150 523.821, 754.500 522.469 C 752.850 521.117, 752.115 520.008, 752.867 520.005 C 753.788 520.002, 754.076 519.177, 753.751 517.476 C 753.485 516.088, 753.726 514.669, 754.286 514.323 C 754.922 513.930, 754.766 513.284, 753.868 512.597 C 753.079 511.994, 751.801 509.475, 751.027 507 C 749.547 502.264, 747 497.696, 747 499.777 C 747 500.450, 746.534 501, 745.965 501 C 745.263 501, 745.274 500.356, 746 499 C 746.726 497.644, 746.737 497, 746.035 497 C 745.466 497, 745.053 496.663, 745.118 496.250 C 745.463 494.070, 744.839 493.124, 743.418 493.670 C 742.124 494.166, 741.928 493.698, 742.337 491.097 C 742.775 488.318, 742.597 487.993, 740.926 488.524 C 739.476 488.984, 739.158 488.752, 739.613 487.565 C 740.194 486.053, 739.941 485.943, 735.082 485.593 C 734.302 485.537, 733.477 484.931, 733.249 484.246 C 732.800 482.899, 726 482.480, 726 483.800 C 726 484.240, 726.540 485.140, 727.200 485.800 C 728.674 487.274, 727.535 487.357, 724.934 485.965 C 722.648 484.741, 722.336 486.204, 724.500 488 C 726.104 489.331, 726.549 492, 725.167 492 C 724.708 492, 724.258 492.675, 724.167 493.500 C 724.075 494.325, 723.925 495.675, 723.833 496.500 C 723.742 497.325, 723.265 498, 722.774 498 C 722.284 498, 722.129 498.399, 722.430 498.887 C 722.731 499.374, 722.222 500.387, 721.297 501.137 C 720.072 502.130, 719.825 502.153, 720.384 501.222 C 720.965 500.256, 720.399 500.077, 718.060 500.489 C 716.230 500.812, 713.769 500.415, 712.033 499.517 C 710.420 498.683, 708.289 498.036, 707.300 498.079 C 706.310 498.122, 706.037 498.376, 706.694 498.644 C 707.350 498.911, 707.641 499.773, 707.339 500.559 C 707.037 501.345, 706.388 501.740, 705.895 501.435 C 705.403 501.131, 705 501.557, 705 502.382 C 705 503.207, 705.376 504.115, 705.836 504.399 C 707.299 505.303, 707.083 512, 705.592 512 C 704.851 512, 703.661 512.704, 702.947 513.564 C 701.702 515.064, 699.995 515.015, 695.343 513.348 C 694.216 512.944, 694.571 513.556, 696.256 514.921 C 697.772 516.150, 699.470 518.010, 700.029 519.055 C 700.884 520.652, 700.763 520.849, 699.273 520.290 C 697.861 519.761, 697.716 519.918, 698.561 521.063 C 700.224 523.314, 699.699 525.472, 697.408 525.799 C 695.111 526.127, 689 521.364, 689 519.246 C 689 518.526, 688.325 517.678, 687.500 517.362 C 686.675 517.045, 686 516.365, 686 515.851 C 686 515.337, 685.158 514.013, 684.130 512.909 C 682.261 510.903, 682.258 510.903, 681.521 513.201 C 681.116 514.465, 680.832 515.837, 680.892 516.250 C 681.096 517.664, 679.214 517.001, 678.619 515.449 C 677.973 513.767, 677.532 514, 672.359 518.750 C 671.012 519.987, 669.453 521, 668.896 521 C 668.338 521, 668.160 521.450, 668.500 522 C 668.840 522.550, 668.641 523, 668.059 523 C 667.477 523, 667 523.702, 667 524.559 C 667 525.416, 666.550 525.840, 666 525.500 C 665.137 524.967, 664.614 526.118, 664.826 528.083 C 664.861 528.404, 664.239 528.667, 663.444 528.667 C 662.650 528.667, 661.999 528.404, 661.999 528.083 C 661.998 527.763, 658.398 527.437, 653.999 527.359 C 649.599 527.282, 646 527.388, 646 527.596 C 646 527.803, 647.462 528.584, 649.250 529.332 C 652.721 530.783, 656.079 534, 654.122 534 C 653.505 534, 653 534.675, 653 535.500 C 653 536.325, 653.627 537, 654.393 537 C 655.159 537, 656.045 537.675, 656.362 538.500 C 656.678 539.325, 656.389 540.007, 655.719 540.015 C 653.554 540.043, 657.369 541.968, 659.620 541.985 C 661.275 541.997, 662.017 542.988, 663 546.500 C 663.693 548.975, 664.651 551, 665.130 551 C 666.651 551, 666.081 556.755, 664.500 557.362 C 663.595 557.709, 663 557.367, 663 556.500 C 663 555.710, 662.409 555.289, 661.688 555.566 C 660.963 555.844, 659.767 554.934, 659.019 553.535 C 657.375 550.464, 656.349 550.324, 655.483 553.053 C 654.963 554.692, 654.547 554.869, 653.416 553.930 C 652.275 552.983, 652 553.144, 652 554.761 C 652 555.926, 651.161 556.986, 650 557.290 C 647.694 557.893, 647.280 560, 649.469 560 C 650.363 560, 650.712 560.586, 650.362 561.500 C 650.042 562.332, 650.333 563, 651.015 563 C 651.931 563, 651.894 563.426, 650.872 564.666 C 649.638 566.164, 649.766 566.265, 652.146 565.673 C 654.126 565.180, 654.957 565.445, 655.450 566.729 C 655.976 568.100, 656.275 568.173, 656.942 567.094 C 658.284 564.922, 660.231 566.975, 659.775 570.080 C 659.517 571.839, 659.862 573.117, 660.679 573.430 C 661.405 573.709, 662 573.501, 662 572.969 C 662 572.436, 662.525 572, 663.167 572 C 663.808 572, 664.051 572.282, 663.707 572.627 C 663.362 572.972, 663.735 574.521, 664.536 576.070 C 665.560 578.049, 666.591 578.771, 668.006 578.499 C 669.526 578.206, 670.374 578.959, 671.465 581.570 C 672.259 583.472, 673.718 585.326, 674.705 585.691 C 675.692 586.056, 676.765 586.747, 677.090 587.227 C 678.065 588.669, 697.252 594.957, 700.747 594.979 C 703.035 594.994, 705.138 596.034, 707.868 598.500 C 709.999 600.425, 712.259 602, 712.891 602 C 713.964 602, 720.510 605.823, 723.802 608.371 C 724.604 608.992, 728.601 612.736, 732.684 616.691 C 739.416 623.212, 740.289 624.515, 742.054 630.688 C 743.124 634.431, 744.020 638.845, 744.044 640.497 C 744.068 642.149, 744.722 645.280, 745.496 647.455 C 747.333 652.610, 746.176 654.240, 741.698 652.807 C 739.939 652.244, 737.600 651.694, 736.500 651.584 C 733.356 651.272, 728.799 648.078, 725.151 643.628 C 721.506 639.184, 716.205 637.126, 708.184 637.044 C 703.386 636.995, 700.760 638.071, 696.894 641.671 C 695.461 643.006, 693.211 644.225, 691.894 644.380 C 688.825 644.743, 682 647.790, 682 648.798 C 682 650.575, 676.436 652.634, 673.500 651.943 C 671.850 651.554, 665.593 651.183, 659.596 651.118 C 650.118 651.015, 648.027 651.307, 643.596 653.347 C 637.952 655.945, 635.199 656.038, 630 653.803 C 624.476 651.429, 612.631 643.907, 611.193 641.860 C 610.475 640.837, 609.505 640, 609.040 640 C 608.203 640, 604.578 637.048, 596.452 629.750 C 594.155 627.688, 591.921 626, 591.486 626 C 591.051 626, 589.077 624.264, 587.098 622.143 C 585.119 620.021, 581.925 617.706, 580 616.997 C 578.075 616.289, 574.925 614.498, 573 613.017 C 568.608 609.639, 565.414 607.920, 564.754 608.579 C 564.474 608.859, 560.994 605.908, 557.020 602.020 C 550.981 596.111, 549.894 594.558, 550.397 592.555 C 551.536 588.017, 551.257 587.809, 533 579.585 C 528.589 577.598, 526 575.597, 526 574.175 C 526 573.567, 525.163 572.622, 524.139 572.075 C 523.116 571.527, 520.733 569.599, 518.844 567.789 C 516.955 565.980, 512.504 561.835, 508.954 558.577 C 505.405 555.320, 502.257 551.720, 501.961 550.577 C 501.566 549.059, 500.491 548.425, 497.961 548.219 C 496.057 548.065, 493.600 547.538, 492.500 547.047 C 491.400 546.557, 489.307 545.898, 487.848 545.583 C 484.333 544.825, 477 539.972, 477 538.404 C 477 536.593, 470.710 533, 467.538 533 C 465.683 533, 464.651 532.381, 464.306 531.063 C 463.562 528.218, 458.369 526.669, 454.828 528.236 C 453.273 528.925, 452 529.828, 452 530.244 C 452 531.958, 445.398 537.045, 438.664 540.520 C 434.317 542.764, 432.678 545.171, 432.573 549.466 C 432.510 552.007, 431.904 552.654, 428.350 553.971 C 423.647 555.714, 420.330 558.386, 419.458 561.132 C 419.132 562.159, 418.238 563, 417.472 563 C 416.705 563, 415.273 563.861, 414.289 564.914 C 412.835 566.470, 410.815 566.888, 403.500 567.142 C 398.550 567.315, 393.978 567.127, 393.340 566.725 C 391.404 565.504, 382.092 568.134, 381.476 570.075 C 380.516 573.099, 363.464 574.460, 360.224 571.771 C 358.215 570.104, 349.625 566.298, 348.500 566.577 C 347.950 566.713, 346.262 567.098, 344.750 567.432 C 343.237 567.765, 342 568.705, 342 569.519 C 342 570.334, 341.325 571, 340.500 571 C 339.675 571, 339 571.348, 339 571.773 C 339 572.710, 333.371 575.629, 330.226 576.323 C 327.435 576.940, 321 575.269, 321 573.928 C 321 573.390, 322.238 572.700, 323.750 572.395 C 329.624 571.209, 331.881 566.741, 332.106 555.853 C 332.125 554.947, 333.458 553.031, 335.070 551.595 C 338.023 548.964, 338.848 547, 337 547 C 336.450 547, 336 546.325, 336 545.500 C 336 544.675, 336.482 544, 337.071 544 C 337.661 544, 338.778 543.365, 339.554 542.589 C 340.329 541.813, 341.535 540.948, 342.232 540.665 C 343.245 540.255, 343.237 539.967, 342.192 539.231 C 341.323 538.619, 341.120 537.370, 341.588 535.506 C 342.084 533.529, 341.957 532.909, 341.157 533.403 C 340.410 533.864, 340.241 533.534, 340.663 532.437 C 341.194 531.053, 340.894 530.902, 338.901 531.552 C 337.581 531.982, 335.825 532.399, 335 532.478 C 334.175 532.558, 332.519 533.157, 331.319 533.810 C 329.473 534.814, 329.270 535.454, 329.996 537.985 C 330.893 541.115, 329.902 542.676, 327.830 541.395 C 327.028 540.899, 326.875 541.232, 327.345 542.456 C 327.893 543.884, 327.627 544.136, 326.015 543.714 C 324.907 543.424, 323.944 543.595, 323.875 544.094 C 323.806 544.592, 323.687 545.788, 323.610 546.750 C 323.533 547.712, 323.149 549.002, 322.758 549.616 C 322.367 550.230, 322.896 551.501, 323.933 552.439 C 325.903 554.222, 325.642 557.063, 323.067 561.875 C 321.089 565.571, 310.640 571.134, 310.153 568.750 C 309.753 566.790, 310.153 566.086, 312 565.500 C 313.100 565.151, 314 564.044, 314 563.040 C 314 562.036, 314.640 560.968, 315.422 560.668 C 317.453 559.889, 316.197 556, 313.915 556 C 312.572 556, 312.240 555.519, 312.708 554.250 C 313.064 553.288, 313.837 552.120, 314.427 551.656 C 315.073 551.147, 314.803 551.035, 313.750 551.374 C 312.477 551.784, 312 551.389, 312 549.925 C 312 548.100, 311.533 547.965, 307 548.484 C 303.717 548.859, 302 548.682, 302 547.969 C 302 547.371, 301.550 547.160, 301 547.500 C 300.450 547.840, 300 547.641, 300 547.059 C 300 546.477, 299.663 546.053, 299.250 546.118 C 296.717 546.518, 295.912 545.852, 296.540 543.875 C 296.994 542.445, 296.852 541.973, 296.107 542.434 C 295.498 542.810, 295 542.641, 295 542.059 C 295 541.477, 295.675 541, 296.500 541 C 297.325 541, 298.034 540.663, 298.077 540.250 C 298.119 539.837, 298.304 538.713, 298.488 537.750 C 298.672 536.788, 298.075 535.582, 297.161 535.070 C 295.741 534.275, 295.908 533.985, 298.315 533.070 C 299.863 532.482, 301.577 532, 302.124 532 C 302.671 532, 302.835 531.543, 302.490 530.984 C 302.144 530.425, 301.443 530.226, 300.931 530.543 C 300.419 530.859, 300 530.191, 300 529.059 C 300 527.927, 300.375 527, 300.833 527 C 301.292 527, 301.667 526.368, 301.667 525.595 C 301.667 524.779, 301.059 524.424, 300.217 524.747 C 299.098 525.176, 298.971 524.870, 299.659 523.402 C 300.928 520.696, 300.682 518.886, 298.627 515.794 C 297.637 514.306, 297.157 512.506, 297.561 511.794 C 298.149 510.755, 298.028 510.747, 296.947 511.750 C 296.206 512.438, 294.416 513, 292.969 513 C 291.217 513, 289.910 513.800, 289.057 515.393 C 288.103 517.177, 287.033 517.734, 284.855 517.583 C 282.881 517.446, 282.087 517.784, 282.408 518.622 C 282.883 519.860, 280.081 519.786, 278.010 518.506 C 276.746 517.725, 277.219 514.646, 278.919 512.598 C 280.481 510.715, 278.998 510.436, 277.075 512.250 C 275.989 513.274, 275.834 513.018, 276.220 510.835 C 276.638 508.463, 276.405 508.200, 274.095 508.445 C 272.642 508.599, 271.358 509.442, 271.177 510.360 C 270.829 512.122, 269 512.660, 269 511 C 269 510.450, 268.438 509.979, 267.750 509.953 C 267.063 509.928, 265.584 508.043, 264.465 505.766 C 263.054 502.893, 261.091 500.916, 258.058 499.312 C 252.509 496.378, 251 496.395, 251 499.393 C 251 500.709, 250.270 502.066, 249.378 502.408 C 248.176 502.870, 247.911 503.804, 248.353 506.015 C 248.708 507.789, 248.530 509, 247.916 509 C 247.347 509, 247.160 509.450, 247.500 510 C 247.840 510.550, 247.586 511, 246.937 511 C 246.065 511, 246.046 511.350, 246.862 512.334 C 248.455 514.254, 249.114 520.811, 247.796 521.626 C 247.074 522.072, 246.969 521.822, 247.493 520.905 C 247.933 520.132, 247.301 520.522, 246.087 521.772 C 244.874 523.022, 243.458 523.783, 242.940 523.463 C 242.423 523.144, 242 523.321, 242 523.858 C 242 524.394, 242.490 524.997, 243.089 525.196 C 243.738 525.413, 243.347 526.557, 242.122 528.030 C 240.584 529.878, 240.058 530.097, 240.033 528.900 C 240.007 527.624, 238.732 527.268, 233.750 527.143 C 229.320 527.032, 227.937 527.275, 229 527.978 C 230.172 528.753, 230.202 528.973, 229.133 528.985 C 228.224 528.995, 227.924 529.821, 228.236 531.455 C 228.558 533.139, 228.202 534.045, 227.103 534.339 C 225.755 534.700, 225.779 534.786, 227.250 534.884 C 228.213 534.948, 229 535.480, 229 536.067 C 229 536.680, 228.147 536.864, 227 536.500 C 225.900 536.151, 225 536.297, 225 536.824 C 225 537.352, 226.214 538.088, 227.698 538.460 C 229.813 538.991, 230.083 539.335, 228.948 540.053 C 227.817 540.769, 227.984 540.973, 229.715 540.985 C 232.870 541.007, 234.576 544.556, 232.919 547.652 C 231.469 550.360, 227.603 551.738, 225.737 550.212 C 225.057 549.656, 222.588 549.297, 220.251 549.416 C 216.855 549.588, 215.550 549.138, 213.751 547.178 C 212.179 545.465, 211.879 544.590, 212.756 544.277 C 213.447 544.031, 213.758 543.418, 213.447 542.915 C 213.136 542.412, 213.385 542, 214 542 C 214.615 542, 214.840 541.550, 214.500 541 C 214.160 540.450, 214.584 540, 215.441 540 C 216.298 540, 217 539.550, 217 539 C 217 538.450, 216.550 538, 216 538 C 215.450 538, 215 537.132, 215 536.071 C 215 535.011, 214.319 533.462, 213.486 532.629 C 212.134 531.277, 212.144 531.019, 213.575 530.218 C 214.925 529.462, 214.965 529.098, 213.826 527.910 C 211.610 525.598, 208.537 520.561, 208.802 519.676 C 208.938 519.222, 208.656 519.094, 208.175 519.392 C 207.695 519.689, 206.686 518.710, 205.934 517.216 C 205.182 515.722, 204.443 514.317, 204.293 514.093 C 204.143 513.870, 202.912 514.882, 201.558 516.343 C 200.203 517.804, 199.385 519, 199.739 519 C 200.093 519, 199.553 519.607, 198.538 520.348 C 197.524 521.090, 197.012 522.210, 197.399 522.837 C 197.836 523.544, 197.577 523.775, 196.718 523.445 C 195.852 523.113, 195.337 523.586, 195.344 524.707 C 195.392 531.592, 194.975 533, 192.893 533 C 191.542 533, 190.971 533.481, 191.300 534.341 C 191.776 535.580, 187.050 541, 185.494 541 C 185.117 541, 183.614 541.825, 182.154 542.832 C 180.694 543.840, 178.150 544.576, 176.500 544.467 C 171.983 544.169, 170.289 545.446, 170.499 548.990 C 170.600 550.688, 170.344 552.287, 169.931 552.543 C 169.517 552.799, 169.299 553.794, 169.447 554.754 C 169.791 556.982, 168.274 557.950, 165.047 557.564 C 163.646 557.396, 163.063 557.458, 163.750 557.702 C 164.438 557.947, 165.030 558.676, 165.067 559.323 C 165.105 559.970, 165.326 561.962, 165.559 563.750 C 165.817 565.726, 165.546 567, 164.869 567 C 164.109 567, 164.150 567.476, 165 568.500 C 165.685 569.325, 167.679 570, 169.431 570 C 174.137 570, 176.454 572.054, 175.598 575.467 C 174.955 578.026, 174.797 578.105, 173.602 576.470 C 172.888 575.494, 171.785 575.015, 171.152 575.406 C 170.447 575.841, 169.988 575.415, 169.970 574.309 C 169.941 572.602, 169.882 572.598, 168.920 574.250 C 168.359 575.212, 167.216 576, 166.379 576 C 164.377 576, 162 578.436, 162 580.488 C 162 581.426, 161.530 581.827, 160.892 581.433 C 160.123 580.958, 159.932 582.026, 160.267 584.928 C 160.761 589.204, 159.292 592, 156.551 592 C 155.833 592, 154.685 592.675, 154 593.500 C 153.233 594.424, 151.038 595, 148.284 595 C 144.706 595, 143.712 595.386, 143.307 596.933 C 143.029 597.996, 141.159 599.982, 139.151 601.348 C 137.143 602.713, 133.492 605.703, 131.038 607.993 C 125.540 613.123, 124.021 613.938, 121.600 613.059 C 119.326 612.233, 115.286 614.163, 108.601 619.268 C 105.912 621.320, 103.167 623, 102.501 623 C 101.835 623, 100.010 625.025, 98.446 627.500 C 96.881 629.975, 95.064 632, 94.408 632 C 93.751 632, 92.955 632.675, 92.638 633.500 C 92.322 634.325, 91.297 635, 90.360 635 C 89.424 635, 87.887 635.697, 86.945 636.549 C 85.891 637.504, 81.886 638.444, 76.520 638.998 C 71.605 639.505, 66.730 640.602, 65.339 641.514 C 62.902 643.110, 57.870 642.841, 55.500 640.987 C 54.950 640.557, 49.505 639.658, 43.400 638.989 C 32.797 637.828, 32.082 637.870, 27.435 639.926 C 24.759 641.109, 22.293 642.526, 21.954 643.074 C 21.615 643.623, 20.026 644.309, 18.423 644.600 C 16.819 644.891, 15.146 645.775, 14.704 646.564 C 13.691 648.375, 10.600 648.386, 4.659 646.598 L 0 645.196 0 722.599 L 0 800.001 700.250 799.751 L 1400.500 799.500 1400.251 682.012 C 1400.004 565.692, 1399.707 554.835, 1396.662 551.058 C 1395.760 549.939, 1395.782 549.785, 1396.758 550.372 C 1398.411 551.365, 1400.249 546.827, 1398.624 545.765 C 1397.827 545.244, 1397.864 545.026, 1398.750 545.015 C 1399.724 545.003, 1400 537.813, 1400 512.441 C 1400 490.079, 1399.673 480.084, 1398.956 480.527 C 1398.382 480.882, 1397.179 480.571, 1396.283 479.836 C 1394.848 478.659, 1394.722 478.769, 1395.233 480.750 C 1395.552 481.988, 1395.405 483, 1394.906 483 C 1394.408 483, 1394 482.550, 1394 482 C 1394 481.450, 1393.523 481, 1392.941 481 C 1392.359 481, 1392.160 481.450, 1392.500 482 C 1392.840 482.550, 1392.416 483, 1391.559 483 C 1390.702 483, 1390 483.675, 1390 484.500 C 1390 486.011, 1388.596 486.408, 1384 486.195 C 1382.625 486.132, 1382.063 486.324, 1382.750 486.623 C 1383.438 486.922, 1383.968 488.142, 1383.930 489.333 C 1383.864 491.360, 1383.810 491.375, 1383.102 489.566 C 1382.073 486.939, 1380.668 489.254, 1381.467 492.259 C 1381.795 493.492, 1381.139 492.813, 1380.008 490.750 C 1377.575 486.312, 1376.706 485.947, 1377.629 489.750 L 1378.297 492.500 1376.225 490 C 1374.370 487.761, 1374.172 487.707, 1374.327 489.484 C 1374.459 490.993, 1373.867 491.482, 1371.849 491.529 C 1370.392 491.562, 1368.479 492.187, 1367.599 492.918 C 1366.720 493.648, 1366 493.910, 1366 493.500 C 1366 493.090, 1365.325 493.315, 1364.500 494 C 1363.247 495.040, 1363 494.896, 1363 493.122 C 1363 490.837, 1361.429 490.212, 1360.757 492.230 C 1360.515 492.955, 1359.612 492.338, 1358.555 490.725 C 1357.347 488.881, 1357.077 487.585, 1357.726 486.745 C 1359.449 484.518, 1360.002 482.010, 1358.714 482.262 C 1358.046 482.393, 1357.275 482.735, 1357 483.023 C 1356.725 483.311, 1355.277 484.324, 1353.782 485.275 C 1352.270 486.237, 1351.292 487.597, 1351.578 488.342 C 1351.860 489.078, 1351.396 490.257, 1350.546 490.962 C 1349.695 491.668, 1349 493.116, 1349 494.181 C 1349 495.247, 1348.550 495.840, 1348 495.500 C 1347.101 494.944, 1346.567 496.257, 1346.882 498.250 C 1346.990 498.939, 1344.611 499.424, 1342.703 499.103 C 1342.264 499.029, 1341.980 499.538, 1342.071 500.234 C 1342.464 503.229, 1341.902 505, 1340.559 505 C 1338.062 505, 1337.706 507.078, 1339.860 509.084 C 1342.136 511.205, 1341.732 513.987, 1339.143 514.022 C 1337.902 514.039, 1338.105 514.509, 1339.974 515.946 L 1342.449 517.847 1340.474 520.069 L 1338.500 522.291 1341.250 521.784 C 1342.763 521.505, 1344 521.665, 1344 522.139 C 1344 522.612, 1344.700 523, 1345.556 523 C 1346.637 523, 1346.255 523.778, 1344.306 525.550 L 1341.500 528.099 1345.877 527.440 C 1348.968 526.975, 1350.052 527.107, 1349.568 527.891 C 1349.177 528.522, 1349.554 529, 1350.441 529 C 1351.298 529, 1351.887 528.494, 1351.750 527.875 C 1351.612 527.256, 1352.175 526.547, 1353 526.299 C 1354.333 525.898, 1354.333 525.976, 1353 527.005 C 1351.792 527.937, 1352.035 528.045, 1354.250 527.562 C 1357.567 526.838, 1357.877 527.712, 1354.750 528.969 C 1352.759 529.769, 1352.723 529.881, 1354.441 529.937 C 1356.363 529.999, 1356.363 530.015, 1354.441 531.468 C 1353.374 532.276, 1353.030 532.951, 1353.679 532.968 C 1354.327 532.986, 1355.532 532.325, 1356.357 531.500 C 1359.177 528.680, 1359.381 529.993, 1356.577 532.920 L 1353.780 535.839 1358.140 535.396 C 1361.754 535.029, 1362.099 535.129, 1360.156 535.979 C 1358.866 536.544, 1357.576 537.904, 1357.289 539.003 C 1357.002 540.101, 1356.257 541.039, 1355.633 541.086 C 1355.010 541.133, 1355.806 541.563, 1357.402 542.040 C 1359.244 542.591, 1361.069 542.510, 1362.402 541.818 C 1364.413 540.774, 1364.407 540.830, 1362.250 543.179 C 1359.552 546.116, 1359.473 546.894, 1361.701 548.523 C 1363.374 549.747, 1363.725 549.671, 1369.105 546.926 C 1370.594 546.166, 1371.016 546.165, 1370.548 546.922 C 1370.184 547.511, 1369.702 548.950, 1369.477 550.121 C 1369.081 552.177, 1369.134 552.189, 1371.033 550.470 C 1372.865 548.812, 1373 548.808, 1373 550.404 C 1373 551.446, 1373.453 551.838, 1374.156 551.404 C 1374.981 550.894, 1375.134 551.580, 1374.690 553.800 C 1374.195 556.277, 1374.366 556.797, 1375.534 556.349 C 1377.259 555.687, 1377.321 556.305, 1376.005 561.043 C 1375.398 563.226, 1375.353 566.873, 1375.888 570.543 C 1376.467 574.518, 1376.838 575.502, 1377.003 573.500 C 1377.211 570.977, 1377.371 571.215, 1378.012 575 C 1378.432 577.475, 1378.552 580.698, 1378.280 582.161 C 1377.662 585.488, 1374.040 586.740, 1372.284 584.234 C 1369.599 580.404, 1368.893 579.989, 1366.204 580.658 C 1364.717 581.028, 1362.971 582.044, 1362.325 582.916 C 1361.297 584.301, 1361.024 584.173, 1360.153 581.891 C 1358.981 578.823, 1351.272 574, 1347.540 574 C 1346.108 574, 1343.412 574.637, 1341.549 575.415 C 1339.687 576.193, 1337.943 576.610, 1337.674 576.341 C 1335.812 574.479, 1325 584.760, 1325 588.394 C 1325 589.512, 1324.088 590, 1322 590 C 1320.112 590, 1319 589.487, 1319 588.617 C 1319 587.856, 1318.001 586.972, 1316.779 586.653 C 1315.162 586.230, 1313.771 586.877, 1311.661 589.036 C 1308.455 592.315, 1303.622 593.063, 1302.614 590.437 C 1302.284 589.577, 1301.671 589.085, 1301.252 589.344 C 1300.833 589.603, 1298.242 589.247, 1295.495 588.553 C 1290.905 587.394, 1290.474 587.028, 1290.179 584.047 C 1289.900 581.224, 1289.577 580.892, 1287.679 581.488 C 1286.481 581.864, 1284.777 582.166, 1283.893 582.159 C 1283.009 582.152, 1280.954 583.351, 1279.327 584.823 C 1275.982 587.849, 1270.526 590.139, 1268.507 589.364 C 1267.658 589.038, 1267.037 589.708, 1266.830 591.174 C 1266.588 592.877, 1265.830 593.518, 1264 593.569 C 1262.625 593.606, 1260.665 594.010, 1259.645 594.466 C 1255.372 596.375, 1243.961 591.776, 1235.534 584.750 C 1233.720 583.237, 1231.896 582, 1231.480 582 C 1230.779 582, 1226.532 578.483, 1218.063 570.891 C 1214.947 568.097, 1213.885 567.775, 1206.708 567.439 C 1202.353 567.235, 1197.927 566.794, 1196.873 566.460 C 1194.889 565.830, 1189 567.912, 1189 569.244 C 1189 569.660, 1187.680 570, 1186.067 570 C 1184.093 570, 1182.943 569.396, 1182.548 568.152 C 1181.874 566.029, 1177.980 564, 1174.579 564 C 1173.299 564, 1170.433 563.358, 1168.210 562.574 C 1163.895 561.052, 1152.461 560.206, 1151.341 561.326 C 1150.970 561.697, 1149.649 562, 1148.405 562 C 1147.161 562, 1145.546 562.597, 1144.817 563.326 C 1144.088 564.055, 1141.956 564.959, 1140.079 565.334 C 1138.202 565.710, 1135.197 567.138, 1133.400 568.509 C 1130.631 570.621, 1129.714 570.842, 1127.392 569.959 C 1125.886 569.386, 1123.493 569.198, 1122.076 569.541 C 1117.349 570.687, 1110.600 576.377, 1108.289 581.167 C 1106.578 584.713, 1104.943 586.343, 1101.058 588.375 C 1098.296 589.819, 1095.331 591, 1094.469 591 C 1093.606 591, 1091.461 591.749, 1089.700 592.664 C 1087.940 593.580, 1084.149 594.442, 1081.275 594.580 C 1078.144 594.730, 1073.792 595.899, 1070.416 597.497 C 1066.950 599.136, 1063.905 599.942, 1062.505 599.591 C 1061.111 599.241, 1059.750 599.597, 1058.992 600.510 C 1057.135 602.747, 1054.678 602.317, 1051.728 599.238 C 1048.818 596.201, 1048.214 592.346, 1047.462 572 C 1047.248 566.225, 1046.579 559.475, 1045.974 557 C 1045.369 554.525, 1044.515 550.475, 1044.075 548 C 1043.636 545.525, 1042.539 541.827, 1041.638 539.782 C 1040.737 537.737, 1040 535.417, 1040 534.625 C 1040 532.577, 1034.441 521.131, 1031.489 517.102 C 1028.401 512.887, 1028.392 511.948, 1031.409 508.693 C 1033.496 506.441, 1033.620 505.930, 1032.341 504.868 C 1031.068 503.811, 1031.174 503.477, 1033.112 502.440 C 1035.103 501.375, 1035.378 500.396, 1035.524 493.869 C 1035.710 485.542, 1035.377 484, 1033.393 484 C 1032.627 484, 1032 483.400, 1032 482.667 C 1032 480.817, 1028.761 480.986, 1027.282 482.913 C 1026.214 484.304, 1026.060 484.222, 1026.032 482.250 C 1026.014 481.012, 1025.520 480, 1024.933 480 C 1024.320 480, 1024.136 480.853, 1024.500 482 C 1024.864 483.147, 1024.680 484, 1024.067 484 C 1023.480 484, 1023 483.132, 1023 482.071 C 1023 481.011, 1022.438 479.548, 1021.750 478.821 C 1019.652 476.603, 1019.979 474.003, 1022.361 473.970 C 1024.383 473.941, 1024.398 473.880, 1022.630 472.853 C 1021.120 471.976, 1021.024 471.599, 1022.130 470.898 C 1023.176 470.236, 1023.026 470.012, 1021.500 469.952 C 1019.770 469.884, 1019.837 469.726, 1022 468.784 C 1024.245 467.806, 1024.303 467.649, 1022.571 467.240 C 1019.838 466.595, 1017.926 464.474, 1019.057 463.343 C 1019.629 462.771, 1017.896 461.213, 1014.549 459.290 C 1011 457.252, 1008.965 456.572, 1008.692 457.334 C 1008.462 457.975, 1007.573 456.925, 1006.718 455 C 1005.863 453.075, 1005.126 452.081, 1005.082 452.790 M 766 472.500 C 766 472.775, 766.225 473, 766.500 473 C 766.775 473, 767 472.775, 767 472.500 C 767 472.225, 766.775 472, 766.500 472 C 766.225 472, 766 472.225, 766 472.500 M 1394 477.500 C 1394 477.775, 1394.225 478, 1394.500 478 C 1394.775 478, 1395 477.775, 1395 477.500 C 1395 477.225, 1394.775 477, 1394.500 477 C 1394.225 477, 1394 477.225, 1394 477.500 M 1019 479.500 C 1019 479.775, 1019.225 480, 1019.500 480 C 1019.775 480, 1020 479.775, 1020 479.500 C 1020 479.225, 1019.775 479, 1019.500 479 C 1019.225 479, 1019 479.225, 1019 479.500 M 734 484.500 C 734 484.775, 734.225 485, 734.500 485 C 734.775 485, 735 484.775, 735 484.500 C 735 484.225, 734.775 484, 734.500 484 C 734.225 484, 734 484.225, 734 484.500 M 1372.226 493.579 C 1373.176 494.570, 1374.168 495.166, 1374.431 494.903 C 1374.694 494.640, 1373.917 493.829, 1372.705 493.100 C 1370.598 491.835, 1370.577 491.857, 1372.226 493.579 M 1036 496.500 C 1036 496.775, 1036.225 497, 1036.500 497 C 1036.775 497, 1037 496.775, 1037 496.500 C 1037 496.225, 1036.775 496, 1036.500 496 C 1036.225 496, 1036 496.225, 1036 496.500 M 806.500 501 C 806.160 501.550, 806.359 502, 806.941 502 C 807.523 502, 808 501.550, 808 501 C 808 500.450, 807.802 500, 807.559 500 C 807.316 500, 806.840 500.450, 806.500 501 M 991 500.500 C 991 500.775, 991.225 501, 991.500 501 C 991.775 501, 992 500.775, 992 500.500 C 992 500.225, 991.775 500, 991.500 500 C 991.225 500, 991 500.225, 991 500.500 M 746.405 503.155 C 745.962 503.870, 746.130 504.038, 746.845 503.595 C 747.480 503.203, 748 502.684, 748 502.441 C 748 501.607, 747.117 502.002, 746.405 503.155 M 721 503.500 C 721 503.775, 721.225 504, 721.500 504 C 721.775 504, 722 503.775, 722 503.500 C 722 503.225, 721.775 503, 721.500 503 C 721.225 503, 721 503.225, 721 503.500 M 1035 504 C 1035 504.733, 1035.300 505.033, 1035.667 504.667 C 1036.033 504.300, 1036.033 503.700, 1035.667 503.333 C 1035.300 502.967, 1035 503.267, 1035 504 M 708.500 505 C 708.840 505.550, 709.568 506, 710.118 506 C 710.668 506, 710.840 505.550, 710.500 505 C 710.160 504.450, 709.432 504, 708.882 504 C 708.332 504, 708.160 504.450, 708.500 505 M 1029 505.500 C 1029 505.775, 1029.225 506, 1029.500 506 C 1029.775 506, 1030 505.775, 1030 505.500 C 1030 505.225, 1029.775 505, 1029.500 505 C 1029.225 505, 1029 505.225, 1029 505.500 M 267 511.500 C 267 511.775, 267.225 512, 267.500 512 C 267.775 512, 268 511.775, 268 511.500 C 268 511.225, 267.775 511, 267.500 511 C 267.225 511, 267 511.225, 267 511.500 M 1001.572 511.750 C 1002.069 512.163, 1002.757 512.875, 1003.099 513.334 C 1003.442 513.792, 1003.995 513.455, 1004.329 512.584 C 1004.767 511.443, 1004.339 511, 1002.802 511 C 1001.628 511, 1001.074 511.337, 1001.572 511.750 M 1344.333 511.667 C 1344.700 512.033, 1345.300 512.033, 1345.667 511.667 C 1346.033 511.300, 1345.733 511, 1345 511 C 1344.267 511, 1343.967 511.300, 1344.333 511.667 M 774 514.500 C 774 514.775, 774.225 515, 774.500 515 C 774.775 515, 775 514.775, 775 514.500 C 775 514.225, 774.775 514, 774.500 514 C 774.225 514, 774 514.225, 774 514.500 M 1001.459 516.067 C 1001.096 516.653, 1001.014 517.348, 1001.276 517.610 C 1001.538 517.872, 1002.019 517.392, 1002.345 516.543 C 1003.021 514.781, 1002.445 514.471, 1001.459 516.067 M 981.079 518.583 C 981.127 519.748, 981.364 519.985, 981.683 519.188 C 981.972 518.466, 981.936 517.603, 981.604 517.271 C 981.272 516.939, 981.036 517.529, 981.079 518.583 M 1008 517.500 C 1008 517.775, 1008.225 518, 1008.500 518 C 1008.775 518, 1009 517.775, 1009 517.500 C 1009 517.225, 1008.775 517, 1008.500 517 C 1008.225 517, 1008 517.225, 1008 517.500 M 1010 517.500 C 1010 517.775, 1010.225 518, 1010.500 518 C 1010.775 518, 1011 517.775, 1011 517.500 C 1011 517.225, 1010.775 517, 1010.500 517 C 1010.225 517, 1010 517.225, 1010 517.500 M 723 518.500 C 723 518.775, 723.225 519, 723.500 519 C 723.775 519, 724 518.775, 724 518.500 C 724 518.225, 723.775 518, 723.500 518 C 723.225 518, 723 518.225, 723 518.500 M 1010 520 C 1010 520.733, 1010.300 521.033, 1010.667 520.667 C 1011.033 520.300, 1011.033 519.700, 1010.667 519.333 C 1010.300 518.967, 1010 519.267, 1010 520 M 755 520.500 C 755 520.775, 755.225 521, 755.500 521 C 755.775 521, 756 520.775, 756 520.500 C 756 520.225, 755.775 520, 755.500 520 C 755.225 520, 755 520.225, 755 520.500 M 791 521 C 791 521.733, 791.300 522.033, 791.667 521.667 C 792.033 521.300, 792.033 520.700, 791.667 520.333 C 791.300 519.967, 791 520.267, 791 521 M 1007 521 C 1007 521.733, 1007.300 522.033, 1007.667 521.667 C 1008.033 521.300, 1008.033 520.700, 1007.667 520.333 C 1007.300 519.967, 1007 520.267, 1007 521 M 1017.168 523.051 C 1017.753 524.729, 1018.364 525.967, 1018.527 525.801 C 1019.147 525.171, 1017.728 520, 1016.935 520 C 1016.478 520, 1016.583 521.373, 1017.168 523.051 M 1347 520.500 C 1347 520.775, 1347.225 521, 1347.500 521 C 1347.775 521, 1348 520.775, 1348 520.500 C 1348 520.225, 1347.775 520, 1347.500 520 C 1347.225 520, 1347 520.225, 1347 520.500 M 244 521.500 C 244 521.775, 244.225 522, 244.500 522 C 244.775 522, 245 521.775, 245 521.500 C 245 521.225, 244.775 521, 244.500 521 C 244.225 521, 244 521.225, 244 521.500 M 1011 523 C 1011 523.733, 1011.300 524.033, 1011.667 523.667 C 1012.033 523.300, 1012.033 522.700, 1011.667 522.333 C 1011.300 521.967, 1011 522.267, 1011 523 M 724.250 523.689 C 725.212 523.941, 726.788 523.941, 727.750 523.689 C 728.712 523.438, 727.925 523.232, 726 523.232 C 724.075 523.232, 723.288 523.438, 724.250 523.689 M 1000 524.500 C 1000 524.775, 1000.225 525, 1000.500 525 C 1000.775 525, 1001 524.775, 1001 524.500 C 1001 524.225, 1000.775 524, 1000.500 524 C 1000.225 524, 1000 524.225, 1000 524.500 M 277.333 525.667 C 277.700 526.033, 278.300 526.033, 278.667 525.667 C 279.033 525.300, 278.733 525, 278 525 C 277.267 525, 276.967 525.300, 277.333 525.667 M 693.504 528.023 C 693.832 529.724, 693.557 530.045, 692.210 529.532 C 690.939 529.049, 690.789 529.173, 691.625 530.016 C 692.243 530.639, 694.493 531.771, 696.625 532.531 C 698.756 533.291, 699.712 533.932, 698.750 533.956 C 697.788 533.980, 697 534.423, 697 534.941 C 697 536.756, 698.818 536.976, 701.646 535.501 C 703.459 534.555, 703.883 534.010, 702.807 534.006 C 701.652 534.002, 701.238 533.363, 701.502 531.990 C 701.794 530.472, 700.985 529.567, 698.194 528.293 C 696.163 527.365, 694.182 526.438, 693.794 526.234 C 693.406 526.030, 693.276 526.835, 693.504 528.023 M 244 530.500 C 244 530.775, 244.225 531, 244.500 531 C 244.775 531, 245 530.775, 245 530.500 C 245 530.225, 244.775 530, 244.500 530 C 244.225 530, 244 530.225, 244 530.500 M 695 530.500 C 695 530.775, 695.225 531, 695.500 531 C 695.775 531, 696 530.775, 696 530.500 C 696 530.225, 695.775 530, 695.500 530 C 695.225 530, 695 530.225, 695 530.500 M 786.250 530.662 C 785.563 530.940, 785 531.696, 785 532.344 C 785 532.991, 783.875 534.734, 782.500 536.217 C 780.625 538.239, 780 540.007, 780 543.290 C 780 545.697, 780.281 547.948, 780.625 548.291 C 780.968 548.635, 783.025 547.923, 785.194 546.708 C 789.712 544.179, 794.098 538.866, 792.193 538.231 C 791.530 538.010, 791.272 537.369, 791.619 536.807 C 792.011 536.173, 791.491 536.027, 790.244 536.423 C 787.492 537.296, 786.429 534.288, 788.631 531.855 C 789.942 530.407, 790.002 530.017, 788.905 530.079 C 788.132 530.122, 786.938 530.385, 786.250 530.662 M 787 531.500 C 787 531.775, 787.225 532, 787.500 532 C 787.775 532, 788 531.775, 788 531.500 C 788 531.225, 787.775 531, 787.500 531 C 787.225 531, 787 531.225, 787 531.500 M 1351 531.500 C 1351 531.775, 1351.225 532, 1351.500 532 C 1351.775 532, 1352 531.775, 1352 531.500 C 1352 531.225, 1351.775 531, 1351.500 531 C 1351.225 531, 1351 531.225, 1351 531.500 M 196 533.500 C 196 533.775, 196.225 534, 196.500 534 C 196.775 534, 197 533.775, 197 533.500 C 197 533.225, 196.775 533, 196.500 533 C 196.225 533, 196 533.225, 196 533.500 M 211.333 534.667 C 211.700 535.033, 212.300 535.033, 212.667 534.667 C 213.033 534.300, 212.733 534, 212 534 C 211.267 534, 210.967 534.300, 211.333 534.667 M 241.250 534.662 C 239.509 535.365, 239.684 537, 241.500 537 C 242.325 537, 243 536.564, 243 536.031 C 243 535.499, 243.787 535.316, 244.750 535.626 C 246.227 536.101, 246.266 536.020, 245 535.110 C 243.371 533.938, 243.120 533.908, 241.250 534.662 M 330 535.500 C 330 535.775, 330.225 536, 330.500 536 C 330.775 536, 331 535.775, 331 535.500 C 331 535.225, 330.775 535, 330.500 535 C 330.225 535, 330 535.225, 330 535.500 M 701 538.893 C 701 541.939, 702.267 542.995, 703.510 540.984 C 703.856 540.425, 704.464 540.169, 704.862 540.414 C 705.259 540.660, 705.650 539.993, 705.730 538.931 C 705.810 537.869, 705.490 537, 705.020 537 C 704.549 537, 703.452 536.727, 702.582 536.393 C 701.349 535.920, 701 536.471, 701 538.893 M 1362.500 538 C 1361.718 539.266, 1363.042 539.266, 1365 538 C 1366.293 537.165, 1366.266 537.029, 1364.809 537.015 C 1363.879 537.007, 1362.840 537.450, 1362.500 538 M 240.764 539.665 C 239.210 541.218, 239.245 541.537, 241.286 544.415 C 242.488 546.112, 244.706 548.544, 246.213 549.819 C 247.720 551.095, 248.852 552.614, 248.727 553.194 C 248.602 553.775, 249.131 554.479, 249.902 554.759 C 251.947 555.502, 250.512 549.109, 248.247 547.390 C 246.585 546.128, 246.585 546.062, 248.250 546.032 C 251.320 545.976, 250.455 541.287, 247.050 539.526 C 243.341 537.608, 242.809 537.619, 240.764 539.665 M 698 538.500 C 698 538.775, 698.225 539, 698.500 539 C 698.775 539, 699 538.775, 699 538.500 C 699 538.225, 698.775 538, 698.500 538 C 698.225 538, 698 538.225, 698 538.500 M 1370.872 541.750 C 1369.629 543.336, 1369.664 543.371, 1371.250 542.128 C 1372.213 541.373, 1373 540.585, 1373 540.378 C 1373 539.555, 1372.179 540.084, 1370.872 541.750 M 247 541.500 C 247 541.775, 247.225 542, 247.500 542 C 247.775 542, 248 541.775, 248 541.500 C 248 541.225, 247.775 541, 247.500 541 C 247.225 541, 247 541.225, 247 541.500 M 704.500 543 C 704.840 543.550, 705.541 544, 706.059 544 C 706.577 544, 707 543.550, 707 543 C 707 542.450, 706.298 542, 705.441 542 C 704.584 542, 704.160 542.450, 704.500 543 M 1023.619 544.132 C 1021.823 546.230, 1021.860 546.330, 1025.897 550.367 C 1029.657 554.127, 1030 554.278, 1030 552.170 C 1030 549.359, 1028.223 545.803, 1026.234 544.633 C 1025.001 543.908, 1024.984 543.624, 1026.130 542.898 C 1026.884 542.421, 1027.038 542.024, 1026.472 542.015 C 1025.907 542.007, 1024.623 542.959, 1023.619 544.132 M 1364 546 C 1362.625 547.076, 1361.950 547.956, 1362.500 547.956 C 1363.050 547.956, 1364.625 547.076, 1366 546 C 1367.375 544.924, 1368.050 544.044, 1367.500 544.044 C 1366.950 544.044, 1365.375 544.924, 1364 546 M 1375 545 C 1375 545.733, 1375.300 546.033, 1375.667 545.667 C 1376.033 545.300, 1376.033 544.700, 1375.667 544.333 C 1375.300 543.967, 1375 544.267, 1375 545 M 292.856 546.738 C 290.837 547.190, 289.757 552.970, 291.562 553.662 C 292.865 554.162, 287.216 559.755, 281.195 563.926 C 278.465 565.816, 277.943 566.762, 278.195 569.352 C 278.522 572.710, 278.080 572.559, 289.274 573.140 C 292.674 573.317, 293.949 572.243, 291.971 570.869 C 290.858 570.096, 290.804 569.724, 291.750 569.341 C 293.571 568.602, 293.281 566, 291.378 566 C 290.073 566, 289.991 565.716, 290.960 564.548 C 291.623 563.749, 291.873 562.174, 291.515 561.048 C 290.813 558.835, 291.936 558.336, 293.686 560.086 C 294.467 560.867, 294.734 559.955, 294.636 556.836 C 294.521 553.160, 294.777 552.547, 296.317 552.809 C 297.776 553.058, 297.950 552.762, 297.202 551.309 C 296.690 550.314, 296.453 548.993, 296.677 548.373 C 297.155 547.051, 295.197 546.213, 292.856 546.738 M 661 546.500 C 661 546.775, 661.225 547, 661.500 547 C 661.775 547, 662 546.775, 662 546.500 C 662 546.225, 661.775 546, 661.500 546 C 661.225 546, 661 546.225, 661 546.500 M 211.714 549.016 C 212.363 551.495, 213.642 552.388, 214.517 550.973 C 215.195 549.875, 213.353 547, 211.971 547 C 211.540 547, 211.424 547.907, 211.714 549.016 M 294 547.500 C 294 547.775, 294.225 548, 294.500 548 C 294.775 548, 295 547.775, 295 547.500 C 295 547.225, 294.775 547, 294.500 547 C 294.225 547, 294 547.225, 294 547.500 M 974.924 550.750 L 972.500 553.500 975.250 551.076 C 977.820 548.810, 978.459 548, 977.674 548 C 977.495 548, 976.258 549.237, 974.924 550.750 M 233.308 550.267 C 232.103 550.809, 230.871 551.895, 230.570 552.679 C 230.267 553.469, 230.464 553.832, 231.011 553.493 C 232.571 552.529, 232.165 554.160, 230.345 556.171 C 229.026 557.628, 228.976 558.006, 230.095 558.032 C 231.071 558.054, 230.907 558.512, 229.559 559.532 C 227.637 560.985, 227.637 561.001, 229.559 561.079 C 230.626 561.122, 230.938 561.385, 230.250 561.662 C 228.475 562.378, 228.696 565, 230.531 565 C 231.374 565, 232.342 565.727, 232.683 566.616 C 233.580 568.954, 242.846 572.979, 247.357 572.990 C 250.465 572.998, 251.096 572.693, 250.607 571.418 C 250.273 570.548, 250 569.516, 250 569.125 C 250 568.734, 247.750 565.752, 245 562.500 C 242.250 559.248, 240 556.028, 240 555.345 C 240 554.662, 238.988 553.018, 237.750 551.691 C 235.922 549.732, 235.089 549.465, 233.308 550.267 M 973 549.500 C 973 549.775, 973.225 550, 973.500 550 C 973.775 550, 974 549.775, 974 549.500 C 974 549.225, 973.775 549, 973.500 549 C 973.225 549, 973 549.225, 973 549.500 M 994.246 554.878 C 994.017 559.929, 994.831 563.659, 998.251 573.231 C 999.426 576.519, 1006.840 581.642, 1012.441 583.036 C 1014.673 583.591, 1017.281 584.486, 1018.236 585.023 C 1020.258 586.161, 1028.983 586.310, 1030.615 585.235 C 1034.225 582.857, 1032.400 576.338, 1026.712 571.289 C 1024.945 569.722, 1021.573 565.865, 1019.218 562.720 C 1015.871 558.249, 1014.342 556.993, 1012.218 556.968 C 1010.723 556.951, 1008.626 556.276, 1007.559 555.468 C 1006.491 554.661, 1004.402 554, 1002.916 554 C 1001.388 554, 999.953 553.321, 999.614 552.437 C 999.284 551.577, 998.561 551.153, 998.007 551.496 C 997.453 551.838, 997 551.690, 997 551.166 C 997 550.642, 996.438 549.998, 995.750 549.735 C 994.858 549.392, 994.427 550.866, 994.246 554.878 M 709.137 550.894 C 707.986 551.623, 707.986 551.845, 709.137 552.315 C 710.165 552.735, 709.944 553.359, 708.234 554.859 C 706.190 556.652, 706.141 556.892, 707.734 557.308 C 709.246 557.702, 709.212 557.787, 707.500 557.899 C 705.833 558.009, 705.749 558.192, 707 559 C 708.090 559.704, 708.142 559.974, 707.191 559.985 C 706.471 559.993, 706.141 560.419, 706.457 560.931 C 706.774 561.443, 706.575 562.144, 706.016 562.490 C 703.914 563.789, 705.242 565.196, 713.999 570.946 C 724.373 577.758, 724.176 577.579, 730.050 585.500 L 734.500 591.500 734.791 582.631 C 735.147 571.747, 733.109 564.316, 729.520 563.416 C 728.244 563.096, 725.777 561.062, 724.037 558.897 C 722.297 556.732, 720.452 555.221, 719.937 555.539 C 719.422 555.857, 719 555.384, 719 554.488 C 719 551.954, 716.517 549.883, 715.136 551.264 C 714.288 552.112, 714 552.096, 714 551.200 C 714 549.812, 711.130 549.632, 709.137 550.894 M 269 551.500 C 269 551.775, 269.225 552, 269.500 552 C 269.775 552, 270 551.775, 270 551.500 C 270 551.225, 269.775 551, 269.500 551 C 269.225 551, 269 551.225, 269 551.500 M 667 552.500 C 667 552.775, 667.225 553, 667.500 553 C 667.775 553, 668 552.775, 668 552.500 C 668 552.225, 667.775 552, 667.500 552 C 667.225 552, 667 552.225, 667 552.500 M 259 556.786 C 259 559.540, 259.639 561.251, 261.170 562.595 C 263.021 564.221, 263.250 564.254, 262.728 562.821 C 262.392 561.898, 261.815 559.530, 261.445 557.560 C 260.509 552.567, 259 552.089, 259 556.786 M 315 553.500 C 315 553.775, 315.225 554, 315.500 554 C 315.775 554, 316 553.775, 316 553.500 C 316 553.225, 315.775 553, 315.500 553 C 315.225 553, 315 553.225, 315 553.500 M 677.446 554.332 C 676.867 554.974, 675.635 557.020, 674.709 558.879 L 673.025 562.258 676.762 561.672 C 679.870 561.185, 680.163 561.276, 678.500 562.208 C 675.768 563.739, 674.935 565.217, 676.049 566.558 C 676.562 567.178, 676.682 567.985, 676.314 568.352 C 675.947 568.720, 676.485 569.634, 677.510 570.384 C 679.304 571.695, 679.292 571.772, 677.196 572.438 C 675.028 573.126, 675.030 573.141, 677.759 576.023 C 680.456 578.871, 693.293 585, 696.562 585 C 697.837 585, 698.066 584.466, 697.530 582.750 C 697.143 581.513, 696.284 578.316, 695.621 575.647 C 694.689 571.897, 693.543 570.144, 690.576 567.932 C 688.465 566.358, 686.096 564.154, 685.312 563.035 C 684.528 561.916, 683.211 561, 682.384 561 C 681.537 561, 681.181 560.515, 681.569 559.888 C 681.947 559.277, 681.849 558.489, 681.350 558.138 C 680.852 557.787, 680.007 556.524, 679.472 555.332 C 678.749 553.720, 678.230 553.464, 677.446 554.332 M 674 554.833 C 674 555.475, 673.377 556, 672.617 556 C 671.856 556, 670.998 556.900, 670.710 558 C 670.423 559.100, 670.585 560, 671.071 560 C 672.319 560, 675.403 555.070, 674.635 554.302 C 674.286 553.953, 674 554.192, 674 554.833 M 203 556 C 203 556.733, 203.300 557.033, 203.667 556.667 C 204.033 556.300, 204.033 555.700, 203.667 555.333 C 203.300 554.967, 203 555.267, 203 556 M 676.813 565.683 C 677.534 565.972, 678.397 565.936, 678.729 565.604 C 679.061 565.272, 678.471 565.036, 677.417 565.079 C 676.252 565.127, 676.015 565.364, 676.813 565.683 M 976 566 C 975.099 566.582, 974.975 566.975, 975.691 566.985 C 976.346 566.993, 977.160 566.550, 977.500 566 C 978.267 564.758, 977.921 564.758, 976 566 M 217 567 C 217 567.733, 217.300 568.033, 217.667 567.667 C 218.033 567.300, 218.033 566.700, 217.667 566.333 C 217.300 565.967, 217 566.267, 217 567 M 200 570.500 C 200 570.775, 200.225 571, 200.500 571 C 200.775 571, 201 570.775, 201 570.500 C 201 570.225, 200.775 570, 200.500 570 C 200.225 570, 200 570.225, 200 570.500 M 258 573 C 258 574.100, 258.661 575, 259.469 575 C 260.363 575, 260.712 575.586, 260.362 576.500 C 260.045 577.325, 260.284 578, 260.893 578 C 262.541 578, 262.231 574.374, 260.429 572.571 C 258.379 570.522, 258 570.589, 258 573 M 167 574 C 167 574.733, 167.300 575.033, 167.667 574.667 C 168.033 574.300, 168.033 573.700, 167.667 573.333 C 167.300 572.967, 167 573.267, 167 574 M 225.111 576.656 C 224.524 577.945, 223.610 579, 223.081 579 C 222.552 579, 222.764 580.237, 223.553 581.750 C 224.350 583.278, 224.990 587.278, 224.994 590.750 C 224.997 594.188, 225.338 596.995, 225.750 596.988 C 227.739 596.957, 236.788 594.149, 238.651 592.986 C 240.462 591.855, 241.336 591.973, 244.909 593.836 C 247.193 595.026, 249.224 596, 249.422 596 C 249.976 596, 253.002 588.122, 252.984 586.730 C 252.965 585.359, 243.158 580.448, 238.500 579.477 C 236.850 579.133, 234.600 578.042, 233.500 577.053 C 232.400 576.064, 230.303 575.043, 228.840 574.783 C 226.766 574.416, 225.943 574.829, 225.111 576.656 M 666 576.500 C 666 576.775, 666.225 577, 666.500 577 C 666.775 577, 667 576.775, 667 576.500 C 667 576.225, 666.775 576, 666.500 576 C 666.225 576, 666 576.225, 666 576.500 M 748.072 581.095 C 747.348 583.919, 746.831 590.341, 746.922 595.365 C 747.205 610.902, 748.775 613.120, 751.531 601.874 C 753.510 593.798, 753.037 579.608, 750.710 577.282 C 749.614 576.186, 749.163 576.838, 748.072 581.095 M 662.405 578.155 C 661.962 578.870, 662.130 579.038, 662.845 578.595 C 663.998 577.883, 664.393 577, 663.559 577 C 663.316 577, 662.797 577.520, 662.405 578.155 M 706 579.040 C 706 583.484, 709.855 588.670, 716.260 592.844 C 721.962 596.559, 725 597.850, 725 596.557 C 725 595.446, 720.411 588.218, 718.084 585.665 C 715.747 583.102, 707.555 577, 706.450 577 C 706.202 577, 706 577.918, 706 579.040 M 175.667 578.667 C 175.300 579.033, 175 579.798, 175 580.367 C 175 580.993, 175.466 580.934, 176.183 580.217 C 176.834 579.566, 177.134 578.801, 176.850 578.517 C 176.566 578.232, 176.033 578.300, 175.667 578.667 M 270.630 581.250 C 269.720 584.646, 269.882 589, 270.918 589 C 274.876 589, 275.967 586.217, 273.839 581.547 C 272.408 578.404, 271.417 578.313, 270.630 581.250 M 177.496 582.007 C 177.153 582.561, 177.596 583.292, 178.480 583.631 C 180.394 584.365, 181.461 583.556, 180.541 582.067 C 179.711 580.723, 178.306 580.696, 177.496 582.007 M 192 581.819 C 192 583.027, 193.897 584.436, 194.591 583.743 C 194.842 583.491, 194.362 582.716, 193.524 582.020 C 192.574 581.231, 192 581.155, 192 581.819 M 218 583.500 C 218 583.775, 218.225 584, 218.500 584 C 218.775 584, 219 583.775, 219 583.500 C 219 583.225, 218.775 583, 218.500 583 C 218.225 583, 218 583.225, 218 583.500 M 0.476 722.500 C 0.476 765.400, 0.599 782.804, 0.750 761.176 C 0.900 739.547, 0.900 704.447, 0.750 683.176 C 0.599 661.904, 0.476 679.600, 0.476 722.500" stroke="none" fill="#000000" fill-rule="evenodd"/>
</svg>