<svg xmlns="http://www.w3.org/2000/svg" width="1024" height="1024" viewBox="0 0 1024 1024" version="1.1">
	<path d="M 859.015 492.628 C 859.007 493.798, 858.325 495.315, 857.500 496 C 856.258 497.031, 855.995 496.923, 855.968 495.372 C 855.938 493.576, 855.881 493.573, 854.569 495.303 C 853.546 496.652, 853.071 496.778, 852.680 495.803 C 852.393 495.086, 852.122 495.498, 852.079 496.719 C 852.024 498.264, 851.545 498.763, 850.500 498.362 C 849.675 498.045, 849 497.173, 849 496.424 C 849 495.615, 848.382 495.300, 847.474 495.648 C 846.519 496.015, 846.274 496.657, 846.819 497.367 C 847.298 497.990, 847.985 499.400, 848.347 500.500 C 848.942 502.311, 848.823 502.288, 847.092 500.250 C 844.890 497.659, 843.805 497.327, 844.638 499.500 C 844.963 500.345, 844.663 501, 843.952 501 C 843.136 501, 843.363 501.758, 844.595 503.146 C 846.494 505.284, 846.493 505.287, 844.164 504.064 C 840.898 502.349, 840.234 503.555, 842.888 506.381 L 845.117 508.754 842.333 509.453 L 839.549 510.151 842.025 512.169 C 843.643 513.488, 843.894 513.992, 842.750 513.624 C 841.788 513.316, 841 513.490, 841 514.012 C 841 514.535, 842.168 515.255, 843.595 515.613 C 845.318 516.046, 845.778 516.519, 844.963 517.023 C 844.103 517.555, 844.540 518.308, 846.428 519.545 C 848.211 520.713, 848.727 521.551, 847.956 522.027 C 847.096 522.559, 847.080 523.282, 847.897 524.807 C 849.381 527.581, 849.298 527.996, 847.250 528.022 C 845.761 528.041, 845.832 528.302, 847.724 529.772 C 849.286 530.986, 849.680 531.927, 849.050 532.936 C 848.270 534.183, 847.924 534.183, 846.412 532.936 C 844.803 531.608, 844.766 531.676, 845.917 533.836 C 847.455 536.721, 846.550 537.825, 843.968 536.212 C 840.950 534.328, 840.689 534.754, 842.932 537.904 C 846.663 543.145, 844.514 543.731, 839.834 538.750 C 837.744 536.525, 837.133 536.192, 837.896 537.694 C 838.509 538.901, 839.466 540.170, 840.022 540.513 C 840.578 540.857, 840.700 541.670, 840.294 542.319 C 839.318 543.881, 838.807 546.022, 838.788 548.627 C 838.776 550.277, 838.295 550.647, 836.637 550.279 C 834.884 549.890, 835.011 550.161, 837.348 551.787 C 839.328 553.165, 839.785 553.932, 838.848 554.305 C 837.806 554.720, 837.840 554.863, 839 554.936 C 840.333 555.020, 840.333 555.140, 839 556.015 C 837.755 556.833, 837.896 557.108, 839.835 557.639 C 841.638 558.132, 841.865 558.495, 840.835 559.233 C 839.873 559.922, 840.041 560.012, 841.434 559.555 C 843.614 558.841, 848 563.122, 848 565.964 C 848 566.874, 848.661 568.491, 849.468 569.559 C 851.456 572.186, 851.367 574.624, 849.250 575.557 C 846.373 576.824, 845.646 576.752, 842.250 574.869 C 840.462 573.878, 839 573.502, 839 574.034 C 839 574.565, 839.563 575.014, 840.250 575.032 C 840.994 575.051, 840.767 575.620, 839.690 576.436 C 838.546 577.303, 838.270 578.049, 838.940 578.463 C 841.059 579.772, 839.983 581.062, 837.750 579.890 C 835.512 578.715, 835.510 578.720, 837.405 580.854 C 838.453 582.035, 838.945 583, 838.500 583 C 838.055 583, 838.522 583.919, 839.539 585.043 C 841.342 587.036, 841.340 587.068, 839.444 586.356 C 837.722 585.709, 837.657 585.818, 838.872 587.313 C 840.058 588.771, 840.017 589, 838.567 589 C 837.300 589, 837.577 589.606, 839.694 591.468 C 841.927 593.432, 842.142 593.943, 840.750 593.968 C 839.621 593.989, 838.989 594.798, 838.968 596.250 C 838.937 598.436, 838.895 598.445, 837.479 596.573 C 836.112 594.766, 834.658 595.005, 834.375 597.083 C 834.306 597.588, 834.194 598.450, 834.125 599 C 834.056 599.550, 833.495 600, 832.878 600 C 832.060 600, 832.067 599.624, 832.903 598.617 C 833.788 597.550, 833.702 597.100, 832.526 596.648 C 831.686 596.326, 831 596.568, 831 597.184 C 831 597.801, 830.131 597.305, 829.070 596.081 L 827.140 593.855 825.567 596.678 L 823.994 599.500 824.605 596.750 C 825.303 593.613, 824.813 593.329, 822.571 595.571 C 821.170 596.973, 821 596.976, 821 595.603 C 821 594.639, 820.434 594.280, 819.487 594.643 C 818.655 594.963, 817.305 594.668, 816.487 593.989 C 814.718 592.521, 814.472 594.072, 816.200 595.800 C 818.385 597.985, 815.676 597.043, 813.179 594.750 L 810.729 592.500 811.864 594.684 C 812.489 595.886, 813 597.628, 813 598.557 C 813 599.944, 812.733 600.023, 811.500 599 C 810.464 598.140, 810 598.102, 810 598.878 C 810 599.495, 809.100 600, 808 600 C 805.747 600, 805.367 601.960, 807.250 603.862 C 808.018 604.638, 807.361 604.537, 805.546 603.600 C 800.008 600.742, 801.162 602.962, 807.415 607.196 C 807.981 607.579, 808.057 608.252, 807.584 608.696 C 807.112 609.138, 806.525 608.938, 806.280 608.250 C 806.034 607.563, 805.351 607, 804.762 607 C 804.172 607, 804.505 607.900, 805.500 609 C 807.727 611.461, 806.417 611.637, 803.579 609.257 C 802.114 608.029, 802.238 608.371, 804 610.417 C 805.560 612.229, 805.919 613.114, 804.955 612.770 C 803.791 612.356, 803.451 612.871, 803.576 614.860 C 803.667 616.312, 803.835 617.500, 803.948 617.500 C 804.061 617.500, 804.312 618.341, 804.505 619.368 C 804.699 620.396, 804.067 622.085, 803.100 623.123 C 801.383 624.966, 801.318 624.958, 800.245 622.755 C 799.640 621.515, 798.924 619.825, 798.652 619 C 798.363 618.121, 798.092 618.535, 797.998 620 C 797.855 622.231, 797.634 622.070, 795.945 618.500 C 794.205 614.823, 794.050 614.717, 794.026 617.191 C 793.987 621.186, 792.214 621.550, 791.128 617.786 C 790.292 614.888, 790.168 614.795, 790.075 617 C 790.005 618.648, 789.698 619.072, 789.173 618.246 C 788.404 617.035, 783 616.835, 783 618.018 C 783 618.338, 783.563 619.201, 784.250 619.936 C 785.275 621.031, 785.094 621.174, 783.250 620.730 C 780.740 620.125, 780.368 620.936, 782.250 622.912 C 783.270 623.983, 783.086 624.100, 781.250 623.545 C 778.913 622.839, 778.021 624.438, 780.250 625.338 C 780.938 625.615, 780.600 625.885, 779.500 625.936 C 777.836 626.015, 777.752 626.193, 779 627 C 780.251 627.809, 780.178 627.972, 778.559 627.985 C 776.637 628, 776.637 628.015, 778.559 629.468 C 780.474 630.917, 780.474 630.938, 778.500 631.032 C 776.692 631.118, 776.722 631.216, 778.814 632.055 C 780.226 632.621, 780.844 633.443, 780.400 634.161 C 779.930 634.923, 780.185 635.143, 781.122 634.784 C 782.045 634.429, 782.571 634.858, 782.571 635.964 C 782.571 637.166, 781.944 637.586, 780.536 637.330 C 778.521 636.963, 778.521 636.969, 780.500 637.909 C 781.600 638.432, 783.625 638.923, 785 639 C 787.206 639.124, 787.273 639.230, 785.566 639.898 C 784.361 640.370, 784.045 640.910, 784.726 641.331 C 785.327 641.702, 786.512 641.741, 787.358 641.416 C 788.205 641.091, 789.554 641.427, 790.357 642.163 C 791.631 643.329, 791.547 643.948, 789.702 647 C 788.047 649.739, 787.958 650.201, 789.294 649.128 C 790.462 648.188, 791 648.120, 791 648.913 C 791 649.747, 791.540 649.782, 792.934 649.035 C 795.698 647.556, 796.207 647.745, 795.089 649.833 C 794.348 651.218, 794.462 651.667, 795.554 651.667 C 796.349 651.667, 797 651.340, 797 650.940 C 797 650.541, 797.725 649.936, 798.611 649.596 C 799.932 649.089, 800.110 649.475, 799.598 651.739 C 799.058 654.122, 799.316 653.953, 801.481 650.500 C 802.861 648.300, 804.021 646.950, 804.058 647.500 C 804.096 648.050, 804.608 647.375, 805.197 646 C 806.237 643.572, 806.304 643.630, 807.536 648 C 808.334 650.833, 808.840 651.645, 808.902 650.191 C 808.956 648.921, 809.450 648.160, 810 648.500 C 810.550 648.840, 811.036 648.304, 811.079 647.309 C 811.125 646.260, 811.370 646.025, 811.662 646.750 C 812.442 648.681, 814.009 648.227, 813.387 646.250 C 812.863 644.583, 812.905 644.583, 814.279 646.250 C 816.366 648.783, 817.395 648.402, 815.557 645.777 C 813.307 642.565, 813.645 641.592, 816.189 643.961 C 817.392 645.082, 818.712 646, 819.121 646 C 819.530 646, 820.153 646.907, 820.505 648.015 C 820.856 649.123, 821.498 649.810, 821.930 649.543 C 822.362 649.276, 823.557 650.620, 824.585 652.529 C 826.484 656.055, 827.975 657.016, 828.030 654.750 C 828.047 654.056, 828.514 654.279, 829.080 655.250 C 829.641 656.212, 830.955 657, 832 657 C 833.045 657, 834.365 657.788, 834.932 658.750 C 835.829 660.271, 836.091 660.305, 836.942 659.005 C 837.784 657.719, 838.132 657.789, 839.429 659.505 C 840.258 660.602, 840.951 661.838, 840.968 662.250 C 840.986 662.663, 841.337 662.929, 841.750 662.841 C 842.624 662.656, 845.728 663.731, 848.291 665.107 C 849.276 665.635, 850.513 665.801, 851.041 665.475 C 851.568 665.149, 852 665.295, 852 665.799 C 852 666.304, 853.688 666.557, 855.750 666.362 C 865.205 665.469, 866.795 665.245, 867.717 664.675 C 869.292 663.701, 874.981 668.492, 877.207 672.667 C 878.331 674.775, 879.571 676.725, 879.962 677 C 883.298 679.345, 889.816 698.710, 888.459 702.245 C 887.958 703.553, 860.801 713.107, 857.780 713.039 C 855.708 712.992, 849.338 716.422, 846.312 719.213 C 843.539 721.772, 836.607 722.584, 830.336 721.085 C 826.726 720.222, 823.725 720.212, 818.500 721.045 C 814.650 721.659, 809.230 722.524, 806.456 722.966 C 803.246 723.479, 798.729 723.311, 794.032 722.506 C 789.237 721.683, 785.574 721.556, 783.576 722.142 C 781.884 722.638, 778.208 722.766, 775.406 722.426 C 771.093 721.903, 769.482 722.228, 764.906 724.546 C 761.933 726.052, 758.024 728.409, 756.220 729.783 C 752.940 732.283, 752.940 732.283, 749.483 730.421 C 746.213 728.660, 745.785 728.648, 741.585 730.205 C 739.143 731.110, 736.252 731.617, 735.160 731.332 C 734.042 731.039, 731.283 731.896, 728.838 733.294 C 726.075 734.875, 722.141 736.008, 718 736.414 C 708.950 737.303, 701.925 739.084, 699.115 741.202 C 697.803 742.191, 696.138 743, 695.415 743 C 694.691 743, 693.740 743.563, 693.300 744.250 C 690.361 748.844, 678.177 750.170, 670.133 746.772 C 665.426 744.783, 665.020 744.762, 661.693 746.341 C 659.771 747.254, 657.591 748.001, 656.849 748.003 C 656.107 748.004, 654.602 749.345, 653.505 750.983 C 651.127 754.533, 648.141 755.905, 641.767 756.377 C 639.163 756.570, 636.463 757.179, 635.767 757.730 C 632.329 760.451, 624.618 764, 622.146 764 C 618.283 764, 608.847 766.886, 606.823 768.687 C 604.834 770.456, 599.177 770.571, 589.500 769.039 C 585.650 768.430, 581.712 767.851, 580.750 767.752 C 579.788 767.653, 579 767.303, 579 766.974 C 579 766.646, 578.082 765.392, 576.961 764.189 C 575.840 762.985, 575.220 762, 575.583 762 C 575.947 762, 575.776 761.435, 575.204 760.745 C 574.631 760.055, 573.656 755.668, 573.037 750.995 C 572.418 746.323, 571.271 740.475, 570.488 738 C 569.705 735.525, 568.591 730.350, 568.012 726.500 C 567.433 722.650, 566.022 716.352, 564.876 712.504 C 563.523 707.958, 562.939 703.756, 563.208 700.504 C 563.720 694.341, 567.617 685.639, 571.909 681.074 C 573.681 679.190, 575.761 675.820, 576.531 673.586 C 577.300 671.351, 578.396 669.368, 578.965 669.178 C 579.534 668.989, 580 668.291, 580 667.629 C 580 666.481, 582.971 663.091, 595.920 649.464 C 600.309 644.845, 602.314 641.677, 604.462 635.964 C 606.005 631.859, 607.833 627.150, 608.523 625.500 C 610.569 620.608, 611.200 617.991, 611.200 614.400 C 611.200 612.533, 611.579 611.240, 612.041 611.526 C 612.504 611.812, 613.059 610.123, 613.275 607.773 C 613.599 604.230, 613.800 603.884, 614.450 605.750 C 615.362 608.371, 617 608.753, 617 606.345 C 617 604.871, 617.224 604.893, 619.052 606.547 C 621.089 608.390, 621.096 608.383, 620.020 605.553 C 619.051 603.005, 619.104 602.842, 620.519 604.016 C 621.871 605.138, 622.185 605.008, 622.678 603.124 C 623.186 601.182, 623.447 601.089, 624.877 602.342 C 625.770 603.124, 627.541 604.081, 628.813 604.469 C 630.922 605.112, 631.017 604.999, 629.885 603.187 C 629.202 602.094, 628.094 601.410, 627.423 601.668 C 625.883 602.259, 624.614 600.357, 625.984 599.510 C 626.543 599.165, 627 599.316, 627 599.847 C 627 600.378, 628.001 600.551, 629.224 600.231 C 630.448 599.911, 630.898 599.466, 630.224 599.241 C 629.551 599.017, 629 598.435, 629 597.948 C 629 597.461, 629.788 597.358, 630.750 597.719 C 632.282 598.293, 632.329 598.165, 631.128 596.687 C 630.373 595.759, 629.135 595, 628.378 595 C 627.620 595, 627 594.498, 627 593.883 C 627 593.232, 628.041 592.966, 629.500 593.245 C 632.649 593.847, 632.630 593.488, 629.354 590.452 L 626.708 588 629.295 588 C 630.718 588, 632.203 587.480, 632.595 586.845 C 633.036 586.133, 632.870 585.962, 632.162 586.400 C 631.532 586.789, 630.225 586.648, 629.258 586.085 C 628.291 585.521, 628.047 585.047, 628.715 585.030 C 629.383 585.014, 630.435 584.055, 631.053 582.901 C 632.039 581.058, 631.965 580.920, 630.446 581.770 C 628.457 582.883, 624.751 582.211, 625.570 580.886 C 625.872 580.399, 627.044 580, 628.176 580 C 629.767 580, 630.110 579.529, 629.690 577.921 C 629.313 576.479, 629.545 575.995, 630.449 576.342 C 631.167 576.618, 632.236 575.778, 632.832 574.469 C 633.767 572.418, 633.682 572.180, 632.207 572.718 C 630.766 573.242, 630.812 572.978, 632.500 571.024 L 634.500 568.709 632.250 569.890 C 629.719 571.218, 629.200 569.909, 631.500 568 C 633.972 565.949, 633.192 564.644, 630.535 566.385 C 627.130 568.616, 626.683 568.413, 628.592 565.500 C 630.051 563.273, 630.060 563, 628.674 563 C 627.818 563, 626.840 563.450, 626.500 564 C 625.240 566.039, 623.981 564.910, 624.549 562.250 C 625.057 559.872, 624.958 559.715, 623.818 561.088 C 623.093 561.961, 621.938 562.486, 621.250 562.254 C 620.563 562.023, 620 562.498, 620 563.310 C 620 564.122, 619.296 565.056, 618.435 565.387 C 617.196 565.862, 617.013 565.518, 617.556 563.744 C 618.157 561.780, 617.900 561.875, 615.504 564.500 C 613.998 566.150, 613.082 566.825, 613.469 566 C 613.857 565.175, 613.206 565.625, 612.024 567 C 609.936 569.429, 609.893 569.436, 610.505 567.250 C 611.084 565.182, 609.717 564.015, 608.747 565.750 C 608.517 566.163, 608.463 565.942, 608.629 565.260 C 608.794 564.578, 607.823 563.743, 606.472 563.404 C 605.120 563.064, 604.276 562.363, 604.596 561.845 C 604.945 561.280, 605.730 561.361, 606.555 562.046 C 607.313 562.675, 608.510 562.957, 609.216 562.673 C 610.023 562.349, 609.850 562.129, 608.750 562.079 C 606.765 561.989, 606.191 557, 608.167 557 C 608.808 557, 609.044 556.711, 608.691 556.357 C 608.337 556.004, 607.298 556.338, 606.380 557.100 C 604.880 558.344, 604.780 558.232, 605.383 555.992 L 606.055 553.500 604.406 555.750 C 602.148 558.829, 600.555 558.609, 602.592 555.500 C 603.493 554.125, 603.770 553, 603.209 553 C 602.647 553, 602.409 551.987, 602.680 550.750 C 602.963 549.461, 602.816 548.936, 602.337 549.520 C 601.877 550.082, 600.257 551.087, 598.737 551.755 L 595.974 552.969 597.623 550.453 C 598.529 549.070, 599.026 547.693, 598.727 547.393 C 598.427 547.094, 597.886 547.783, 597.524 548.925 C 596.525 552.073, 595.017 551.407, 594.864 547.750 C 594.769 545.498, 594.597 545.174, 594.302 546.695 C 594.025 548.116, 593.365 548.694, 592.426 548.333 C 591.354 547.922, 591.159 548.262, 591.676 549.639 C 592.295 551.290, 592.181 551.343, 590.663 550.107 C 587.997 547.938, 587.733 549.385, 590.209 552.597 C 592.144 555.108, 592.180 555.297, 590.473 554 C 589.388 553.175, 587.952 551.825, 587.282 551 C 586.469 549.999, 586.053 549.906, 586.032 550.719 C 586.014 551.391, 585.322 551.677, 584.489 551.357 C 583.407 550.942, 583.153 551.236, 583.596 552.389 C 584.243 554.077, 583.096 554.530, 581.416 553.250 C 580.874 552.837, 581.572 553.597, 582.966 554.939 C 584.519 556.434, 584.855 557.135, 583.833 556.752 C 582.810 556.368, 581.937 556.722, 581.574 557.667 C 581.242 558.532, 580.330 558.957, 579.492 558.635 C 577.513 557.876, 577.607 558.879, 579.750 561.404 C 581.417 563.367, 581.417 563.401, 579.750 562.110 C 578.697 561.295, 578 561.178, 578 561.819 C 578 562.403, 578.450 563.160, 579 563.500 C 580.162 564.218, 580.355 566.056, 579.250 565.882 C 576.062 565.378, 578.126 568.398, 581.571 569.276 C 583.421 569.748, 583.418 569.773, 581.500 569.891 C 579.723 569.999, 579.801 570.212, 582.193 571.789 C 584.888 573.567, 584.818 575.198, 582 576.271 C 580.517 576.836, 584.023 577.429, 586.750 577.075 C 587.438 576.985, 588 577.382, 588 577.956 C 588 578.530, 587.523 579, 586.941 579 C 586.359 579, 586.160 579.450, 586.500 580 C 586.840 580.551, 586.081 581.032, 584.809 581.070 C 582.642 581.136, 582.623 581.190, 584.500 581.945 C 585.600 582.388, 586.837 582.554, 587.250 582.316 C 587.663 582.077, 588 582.584, 588 583.441 C 588 584.298, 587.550 585, 587 585 C 586.450 585, 586.788 585.829, 587.750 586.841 C 588.712 587.854, 589.837 588.503, 590.250 588.282 C 590.663 588.062, 591 588.328, 591 588.874 C 591 589.419, 590.066 590.162, 588.925 590.524 C 585.609 591.576, 587.305 592.060, 590.798 591.058 C 593.877 590.175, 593.992 590.257, 595.020 594.075 C 595.601 596.234, 596.400 598, 596.796 598 C 597.938 598, 597.019 607.198, 595.548 610.500 C 592.767 616.740, 592.144 618.671, 590.947 624.773 C 589.664 631.317, 587.295 635.293, 579 644.827 C 574.159 650.390, 573 651.036, 573 648.167 C 573 647.158, 572.670 646.003, 572.267 645.600 C 570.866 644.200, 569.359 637.466, 569.120 631.541 C 568.882 625.614, 568.891 625.592, 570.907 627.416 C 572.884 629.205, 572.923 629.198, 572.523 627.120 C 572.165 625.260, 572.368 625.127, 574.127 626.068 C 576.072 627.109, 576.086 627.060, 574.517 624.666 C 573.287 622.789, 573.185 622.003, 574.100 621.438 C 574.841 620.980, 575.049 621.111, 574.638 621.776 C 574.269 622.373, 574.378 623.115, 574.879 623.425 C 576.307 624.308, 576.980 621.390, 575.672 619.986 C 574.747 618.993, 574.986 618.845, 576.807 619.285 C 578.587 619.715, 578.874 619.554, 578.066 618.579 C 577.489 617.884, 577.351 616.948, 577.759 616.498 C 578.166 616.048, 577.938 616.003, 577.250 616.399 C 575.430 617.446, 575.681 614.462, 577.571 612.571 C 578.436 611.707, 578.773 610.984, 578.321 610.965 C 577.870 610.945, 578.625 610.286, 580 609.500 C 582.468 608.089, 582.472 608.070, 580.250 608.035 C 578.053 608.001, 578.044 607.956, 579.868 606.132 C 581.208 604.792, 581.650 603.132, 581.432 600.256 C 581.183 596.976, 581.525 596.041, 583.314 595.103 C 585.302 594.062, 585.231 594.012, 582.527 594.554 C 579.584 595.144, 579.573 595.129, 581.411 593.099 C 582.432 591.970, 583.668 591.295, 584.158 591.598 C 584.649 591.901, 584.926 591.573, 584.775 590.870 C 584.624 590.166, 585.137 589.570, 585.917 589.545 C 586.696 589.520, 587.535 588.894, 587.782 588.153 C 588.131 587.108, 587.794 587.040, 586.283 587.848 C 585.212 588.422, 583.793 589.544, 583.131 590.342 C 582.468 591.140, 581.033 591.560, 579.940 591.274 C 578.052 590.780, 578.041 590.683, 579.727 589.303 C 580.702 588.505, 580.889 588.166, 580.143 588.551 C 579.110 589.083, 578.957 588.712, 579.500 587 C 579.987 585.467, 579.861 584.968, 579.107 585.434 C 577.616 586.356, 577.692 583.708, 579.200 582.200 C 580.064 581.336, 580.081 581, 579.259 581 C 578.631 581, 577.840 581.450, 577.500 582 C 576.254 584.015, 575.321 582.908, 575.183 579.252 C 575.106 577.191, 574.431 575.053, 573.683 574.502 C 572.936 573.951, 572.514 572.937, 572.746 572.249 C 573.014 571.455, 572.590 571.220, 571.584 571.606 C 570.529 572.011, 570 571.657, 570 570.548 C 570 569.603, 569.530 569.173, 568.913 569.554 C 568.130 570.038, 568.130 570.530, 568.913 571.313 C 570.791 573.191, 570.097 574.122, 567.750 572.871 C 565.664 571.760, 565.606 571.802, 566.962 573.444 C 568.253 575.009, 568.232 575.357, 566.787 576.414 C 565.296 577.504, 565.332 577.726, 567.192 578.888 C 568.642 579.793, 568.925 580.475, 568.167 581.233 C 567.409 581.991, 567.521 583.310, 568.549 585.773 C 570.432 590.277, 570.387 590.742, 568 591.500 C 566.900 591.849, 566 592.817, 566 593.651 C 566 594.484, 565.438 594.977, 564.750 594.746 C 564.063 594.514, 562.901 595.039, 562.168 595.912 C 560.968 597.344, 560.891 597.328, 561.387 595.750 C 561.914 594.075, 561.035 593.564, 558.250 593.925 C 557.563 594.015, 556.976 593.055, 556.948 591.794 L 556.895 589.500 555.363 591.693 C 554.141 593.443, 553.363 593.708, 551.519 593.007 C 550.246 592.523, 548.963 592.370, 548.667 592.666 C 548.372 592.962, 547.100 592.483, 545.842 591.602 C 544.584 590.721, 543.768 589.966, 544.027 589.923 C 549.434 589.048, 550.434 588.011, 545.917 587.965 C 542.800 587.932, 542.676 587.822, 544.500 586.715 C 547.302 585.013, 547.389 582.098, 544.618 582.771 C 542.740 583.227, 542.833 582.929, 545.437 580.143 C 547.052 578.414, 547.895 577, 547.310 577 C 546.724 577, 545.685 577.675, 545 578.500 C 544.315 579.325, 543.290 580, 542.723 580 C 542.155 580, 542.435 579.177, 543.345 578.171 C 545.751 575.513, 545.374 574.362, 542.828 576.595 C 541.634 577.643, 541.001 577.912, 541.422 577.193 C 541.844 576.474, 542.354 574.899, 542.556 573.693 C 542.758 572.487, 543.230 570.150, 543.606 568.500 L 544.289 565.500 542.139 568 L 539.989 570.500 540.995 567.685 C 541.548 566.137, 542 564.648, 542 564.376 C 542 563.223, 539.692 565.453, 537.877 568.359 C 535.926 571.483, 535.919 571.485, 536.566 568.750 C 536.956 567.102, 536.802 566, 536.182 566 C 535.612 566, 534.948 565.212, 534.704 564.250 C 534.406 563.071, 534.010 563.587, 533.490 565.831 C 532.521 570.011, 530.859 567.954, 531.722 563.642 C 532.140 561.550, 531.975 560.897, 531.156 561.404 C 530.520 561.797, 530 562.718, 530 563.452 C 530 564.186, 529.325 565.045, 528.500 565.362 C 527.398 565.785, 526.991 565.217, 526.965 563.219 L 526.929 560.500 525.563 562.968 L 524.196 565.436 523.734 562.968 C 523.287 560.579, 523.268 560.588, 523.136 563.250 C 522.999 566.019, 521 567.244, 521 564.559 C 521 563.766, 520.548 562.839, 519.996 562.497 C 519.353 562.100, 519.208 563.243, 519.594 565.671 L 520.197 569.465 518.022 566.983 C 516.826 565.617, 516.136 565.066, 516.488 565.758 C 517.256 567.268, 514.958 569.819, 513.320 569.273 C 512.586 569.029, 512.355 569.640, 512.692 570.932 C 512.987 572.057, 513.696 572.688, 514.268 572.334 C 514.873 571.960, 515.010 572.175, 514.594 572.848 C 514.072 573.693, 513.334 573.714, 511.864 572.927 C 510.047 571.955, 509.954 572.046, 510.924 573.859 C 512.471 576.748, 512.251 578.034, 510.336 577.299 C 509.120 576.832, 508.895 577.021, 509.500 578 C 510.120 579.004, 509.848 579.177, 508.414 578.691 C 506.912 578.181, 506.990 578.390, 508.778 579.661 C 510.975 581.224, 510.993 581.353, 509.278 583.312 C 508.300 584.430, 507.971 585.071, 508.548 584.738 C 509.124 584.405, 510.249 584.552, 511.048 585.066 C 512.242 585.834, 512.263 586.153, 511.165 586.861 C 510.163 587.508, 510.412 587.881, 512.165 588.361 C 514.131 588.899, 514.263 589.168, 513 590.065 C 511.817 590.906, 511.975 590.997, 513.750 590.498 C 515.073 590.126, 516 590.305, 516 590.933 C 516 591.520, 515.100 592, 514 592 C 512.900 592, 512.113 592.492, 512.250 593.093 C 512.388 593.694, 511.700 594.707, 510.722 595.343 C 509.345 596.238, 508.758 596.204, 508.126 595.190 C 507.512 594.206, 506.891 594.517, 505.631 596.440 C 503.995 598.937, 501 599.966, 501 598.031 C 501 597.499, 501.629 597.304, 502.399 597.600 C 503.168 597.895, 504.095 597.656, 504.458 597.068 C 504.821 596.481, 504.529 595.931, 503.809 595.848 C 503.089 595.764, 501.825 595.631, 501 595.552 C 500.175 595.473, 498.557 595.998, 497.403 596.719 C 495.592 597.851, 494.946 597.745, 492.653 595.942 C 490.181 593.998, 489.999 593.979, 489.985 595.677 C 489.972 597.223, 489.820 597.272, 488.985 596 C 488.174 594.765, 487.880 594.940, 487.320 596.991 L 486.641 599.482 485.365 596.491 C 484.463 594.374, 484.077 594.057, 484.045 595.405 C 484.002 597.247, 483.933 597.250, 482 595.500 C 480.201 593.872, 480 593.857, 480 595.345 C 480 596.255, 479.550 597, 479 597 C 478.450 597, 478 596.475, 478 595.833 C 478 595.192, 477.739 594.928, 477.419 595.248 C 477.099 595.567, 477.309 596.708, 477.884 597.783 C 479.307 600.442, 478.077 601.379, 475.831 599.347 C 474.824 598.436, 474 598.155, 474 598.723 C 474 599.290, 474.686 600.324, 475.524 601.020 C 477.935 603.021, 476.460 603.330, 473.337 601.478 C 471.125 600.166, 471.365 600.591, 474.428 603.408 L 478.357 607.020 474.928 605.865 C 473.043 605.230, 470.938 604.270, 470.250 603.732 C 467.695 601.735, 469.113 604.221, 472.250 607.240 C 474.037 608.960, 474.732 609.796, 473.794 609.098 C 471.993 607.758, 469.563 608.484, 470.543 610.069 C 470.859 610.581, 470.641 611, 470.059 611 C 468.798 611, 469.084 613.155, 470.500 614.328 C 471.063 614.795, 470.393 614.983, 468.964 614.758 C 467.048 614.457, 466.429 614.795, 466.429 616.145 C 466.429 617.532, 466.994 617.810, 468.964 617.388 L 471.500 616.846 469.079 618.173 C 466.107 619.802, 464.973 622.324, 467.666 621.313 C 469.276 620.709, 469.334 620.830, 468.137 622.302 C 467.387 623.224, 466.413 623.755, 465.972 623.483 C 465.531 623.210, 464.912 623.553, 464.595 624.244 C 464.278 624.935, 464.270 624.487, 464.577 623.250 C 465.020 621.462, 464.710 621, 463.067 621 C 461.930 621, 460.993 620.438, 460.985 619.750 C 460.973 618.777, 460.789 618.784, 460.155 619.784 C 459.665 620.555, 458.604 620.785, 457.496 620.360 C 455.993 619.783, 455.778 620.008, 456.328 621.576 C 456.914 623.243, 456.753 623.205, 455.126 621.293 C 454.093 620.078, 452.943 619.390, 452.570 619.764 C 452.197 620.137, 451.436 619.780, 450.880 618.971 C 450.112 617.854, 450.021 618.041, 450.502 619.750 C 451.199 622.227, 450.098 622.693, 448.141 620.750 C 447.131 619.748, 447.014 619.847, 447.548 621.250 C 448.312 623.257, 446.971 623.571, 445.200 621.800 C 443.383 619.983, 443.755 621.458, 446.182 625.693 L 448.364 629.500 445.868 627.250 C 442.871 624.549, 440.818 624.304, 441.679 626.750 C 442.181 628.179, 442.047 628.270, 440.947 627.250 C 439.219 625.647, 437.200 625.600, 438.800 627.200 C 440.611 629.011, 440.251 629.993, 437.750 630.063 L 435.500 630.127 437.648 630.993 C 440.715 632.231, 441.945 634.480, 439.155 633.751 C 437.937 633.432, 437.249 633.594, 437.575 634.121 C 439.049 636.506, 438.834 640.995, 437.200 641.948 C 435.798 642.766, 436.015 642.945, 438.441 642.970 C 441.243 642.999, 441.291 643.069, 439.441 644.468 C 437.566 645.886, 437.586 645.938, 440 645.984 C 441.986 646.021, 442.191 646.230, 441 647 C 439.662 647.865, 440.260 648.422, 442.214 648.130 C 442.607 648.072, 442.643 648.766, 442.295 649.673 C 441.790 650.991, 442.116 651.203, 443.923 650.730 C 446.026 650.180, 446.073 650.262, 444.592 651.898 C 442.310 654.419, 442.624 655.650, 445 653.500 C 446.100 652.505, 447 652.183, 447 652.786 C 447 653.389, 446.579 654.142, 446.064 654.461 C 445.549 654.779, 445.193 655.908, 445.273 656.969 C 445.382 658.417, 445.737 658.633, 446.698 657.836 C 447.402 657.251, 447.787 656.464, 447.554 656.087 C 447.320 655.709, 448.113 654.788, 449.315 654.039 C 451.186 652.874, 451.341 652.882, 450.394 654.089 C 449.786 654.865, 449.034 656.538, 448.723 657.807 C 448.255 659.716, 448.403 659.910, 449.579 658.935 C 450.879 657.855, 451.423 658.320, 451.118 660.250 C 451.053 660.663, 451.675 661, 452.500 661 C 453.325 661, 454 660.550, 454 660 C 454 659.450, 454.450 659, 455 659 C 455.550 659, 456 659.986, 456 661.191 C 456 663.332, 456.033 663.338, 457.468 661.441 C 458.911 659.534, 458.937 659.536, 458.968 661.583 C 459.025 665.328, 460.407 665.179, 461.611 661.299 L 462.790 657.500 462.963 661 C 463.124 664.269, 463.207 664.351, 464.220 662.250 C 465.814 658.946, 468 659.414, 468 663.059 C 468 664.876, 468.412 665.863, 469.016 665.490 C 469.575 665.144, 469.774 664.443, 469.457 663.931 C 469.141 663.419, 469.359 663, 469.941 663 C 470.523 663, 471.003 663.788, 471.007 664.750 C 471.010 665.712, 471.907 667.850, 473 669.500 L 474.987 672.500 475.025 670 C 475.060 667.708, 475.174 667.646, 476.392 669.250 C 477.123 670.212, 477.994 671, 478.329 671 C 478.663 671, 478.684 670.212, 478.376 669.250 C 478.008 668.104, 478.529 668.363, 479.885 670 C 481.024 671.375, 481.966 672.823, 481.978 673.219 C 481.990 673.614, 482.678 673.677, 483.508 673.359 C 484.337 673.040, 486.024 673.441, 487.258 674.249 C 488.491 675.057, 489.801 675.669, 490.169 675.609 C 490.538 675.549, 491.888 676.464, 493.169 677.642 C 494.451 678.820, 497.075 680.109, 499 680.506 C 500.925 680.903, 503.962 681.829, 505.750 682.563 C 507.897 683.445, 509 683.534, 509 682.827 C 509 682.086, 509.414 682.099, 510.342 682.869 C 511.080 683.481, 511.981 683.686, 512.344 683.323 C 513.599 682.068, 518.117 685.419, 527.458 694.535 C 532.618 699.571, 538.187 704.249, 539.834 704.931 C 543.525 706.460, 546.096 712.686, 547.386 723.217 C 547.636 725.261, 548.122 727.388, 548.465 727.944 C 550.508 731.248, 553.301 761.033, 551.717 762.617 C 551.316 763.017, 543.758 763.406, 534.921 763.482 L 518.854 763.618 517.401 760.809 C 516.444 758.957, 515.160 758, 513.633 758 C 509.955 758, 501.997 760.692, 499.800 762.681 C 498.190 764.138, 496.106 764.500, 489.338 764.500 C 481.507 764.500, 480.745 764.683, 478.951 767 C 477.507 768.865, 476.804 769.177, 476.185 768.229 C 475.355 766.957, 473.027 767.038, 469.758 768.454 C 468.644 768.936, 466.665 768.410, 464.262 766.992 C 462.196 765.773, 458.289 763.902, 455.579 762.834 C 452.868 761.766, 448.979 759.567, 446.935 757.949 C 444.016 755.637, 442.579 755.134, 440.231 755.604 C 438.495 755.951, 436.957 755.740, 436.562 755.101 C 436.188 754.495, 434.388 754, 432.563 754 C 430.738 754, 427.725 753.365, 425.867 752.589 C 421.110 750.601, 410.197 751.969, 402.505 755.518 C 399.207 757.039, 394.436 758.383, 391.903 758.505 C 388.848 758.652, 385.990 759.614, 383.416 761.363 C 378.982 764.376, 375.838 764.715, 373.907 762.388 C 373.172 761.502, 368.981 758.691, 364.595 756.143 C 360.208 753.594, 355.238 750.087, 353.550 748.349 C 351.862 746.610, 348.010 743.544, 344.990 741.533 C 341.971 739.523, 336.575 735.045, 333 731.583 C 329.425 728.120, 324.025 723.703, 321 721.766 C 317.975 719.828, 313.721 716.389, 311.547 714.122 C 309.373 711.855, 307.012 710, 306.301 710 C 305.590 710, 301.937 707.188, 298.184 703.750 C 294.431 700.313, 290.041 696.828, 288.430 696.006 C 281.798 692.624, 278.158 689.498, 258.677 670.465 C 254.179 666.071, 250.597 663.643, 245.500 661.534 C 241.650 659.942, 237.571 657.820, 236.436 656.819 C 235.300 655.819, 233.910 655, 233.346 655 C 232.783 655, 230.923 653.463, 229.213 651.584 C 227.503 649.705, 225.278 647.906, 224.268 647.585 C 223.259 647.265, 221.687 645.740, 220.775 644.196 C 218.668 640.629, 195.715 618.289, 192.737 616.907 C 191.507 616.336, 189.429 614.149, 188.120 612.047 C 185.851 608.404, 184.502 607.513, 173 602.063 C 170.525 600.890, 167.151 599.122, 165.502 598.135 C 163.115 596.705, 161.850 596.540, 159.298 597.324 C 154.891 598.676, 147.283 605.162, 143.964 610.395 C 142.450 612.784, 139.476 616.005, 137.355 617.555 C 135.235 619.104, 131.250 622.464, 128.500 625.021 C 119.402 633.482, 109.962 639.446, 105.501 639.550 C 101.342 639.647, 95.944 641.928, 92.500 645.043 C 90.992 646.407, 88.341 646.960, 81.725 647.294 C 75.134 647.626, 72.456 648.183, 70.965 649.532 C 69.239 651.093, 68.657 651.154, 66.499 649.999 C 63.689 648.496, 59 649.913, 59 652.266 C 59 654.935, 53.469 659.737, 49 660.949 C 45.797 661.817, 42.841 663.795, 38.744 667.809 L 32.989 673.449 29.577 671.612 C 24.608 668.935, 14.238 669.778, 6.143 673.515 L 0 676.351 -0 785.677 L -0 895.002 512.250 894.751 L 1024.500 894.500 1024.500 777.833 C 1024.500 713.666, 1024.185 660.852, 1023.801 660.467 C 1023.048 659.714, 1021.061 660.361, 1011 664.634 C 1006.497 666.547, 1002.503 667.458, 998 667.599 C 989.410 667.869, 981.154 669.551, 979.044 671.460 C 978.108 672.307, 976.881 673, 976.317 673 C 975.753 673, 974.077 674.126, 972.592 675.502 C 968.861 678.960, 965.088 680.718, 961.226 680.799 C 959.426 680.837, 956.764 681.734, 955.311 682.792 C 952.840 684.592, 952.486 684.613, 949.853 683.108 C 947.003 681.480, 943.445 682.326, 944.173 684.459 C 944.353 684.987, 942.025 685.957, 939 686.616 C 935.975 687.275, 930.575 689.048, 927 690.556 C 923.425 692.064, 918.250 693.936, 915.500 694.716 C 912.750 695.496, 909.771 696.367, 908.879 696.650 C 906.185 697.507, 906.080 696.423, 904.480 651.315 C 903.574 625.798, 903.273 623.258, 900.479 617.547 C 899.057 614.641, 897.131 611.416, 896.197 610.381 C 890.592 604.163, 888.860 600.914, 889.528 597.872 C 890.018 595.642, 890.503 595.103, 891.301 595.901 C 893.109 597.709, 893.751 597.162, 893.236 594.250 C 892.837 591.995, 892.988 591.725, 894.075 592.750 C 896.135 594.693, 897.190 594.224, 895.954 591.914 C 895.340 590.767, 895.099 589.567, 895.419 589.248 C 895.739 588.928, 896 589.119, 896 589.673 C 896 590.226, 897.131 591.194, 898.513 591.824 L 901.026 592.969 899.286 590.234 C 898.329 588.730, 897.086 587.169, 896.523 586.765 C 894.848 585.562, 896.823 585.899, 900.532 587.449 C 902.439 588.246, 904 588.523, 904 588.066 C 904 587.608, 902.987 586.930, 901.750 586.558 C 899.604 585.915, 899.590 585.848, 901.456 585.107 C 903.397 584.335, 903.397 584.320, 901.456 583.089 C 899.567 581.892, 900.274 581.996, 904.500 583.538 C 905.600 583.939, 904.925 583.039, 903 581.537 L 899.500 578.807 903 579.406 C 906.103 579.937, 906.245 579.874, 904.250 578.849 C 903.013 578.214, 902 577.355, 902 576.941 C 902 576.526, 903.013 576.448, 904.250 576.767 C 906.291 577.293, 906.367 577.185, 905.064 575.597 C 903.817 574.077, 903.817 573.715, 905.064 572.837 C 906.164 572.063, 905.974 571.942, 904.250 572.320 C 903.013 572.591, 902 572.598, 902 572.335 C 902 571.560, 905.320 568.469, 905.762 568.833 C 905.985 569.017, 906.467 568.867, 906.833 568.500 C 907.200 568.133, 907.050 567.924, 906.500 568.035 C 905.950 568.146, 904.401 568.184, 903.059 568.118 C 900.686 568.003, 900.672 567.957, 902.559 566.469 C 904.409 565.011, 904.359 564.952, 901.500 565.219 C 898.729 565.479, 898.526 565.280, 898.840 562.608 C 899.120 560.230, 898.878 559.833, 897.479 560.370 C 896.246 560.843, 895.934 560.615, 896.345 559.543 C 897.007 557.818, 895.437 556.484, 894.510 557.984 C 894.165 558.543, 893.369 559, 892.741 559 C 891.919 559, 891.936 558.664, 892.800 557.800 C 894.535 556.065, 894.278 554.524, 892.500 556 C 890.722 557.476, 890.465 555.935, 892.200 554.200 C 893.027 553.373, 893.054 553, 892.289 553 C 891.678 553, 890.063 554.325, 888.700 555.945 C 886.311 558.783, 884.632 559.123, 885.612 556.569 C 885.873 555.889, 885.392 555.333, 884.543 555.333 C 883.694 555.333, 882.993 555.596, 882.985 555.917 C 882.976 556.237, 882.544 557.173, 882.024 557.995 C 881.213 559.278, 880.865 559.207, 879.571 557.495 C 878.065 555.502, 878.063 555.502, 877.917 557.500 C 877.836 558.600, 877.858 560.337, 877.966 561.359 C 878.084 562.469, 877.727 562.949, 877.081 562.550 C 876.487 562.183, 876 561.481, 876 560.991 C 876 560.501, 874.683 558.148, 873.072 555.762 C 869.695 550.758, 868.174 546, 869.951 546 C 870.593 546, 870.840 545.550, 870.500 545 C 870.160 544.450, 870.584 544, 871.441 544 C 872.298 544, 873 543.550, 873 543 C 873 542.450, 872.523 542, 871.941 542 C 871.359 542, 871.174 541.528, 871.530 540.951 C 871.972 540.237, 872.634 540.282, 873.612 541.093 C 874.785 542.067, 874.923 541.964, 874.372 540.526 C 873.805 539.049, 874.081 538.885, 876.099 539.497 C 878.061 540.092, 878.271 539.985, 877.250 538.912 C 875.501 537.076, 875.686 536.234, 878 535.500 C 881.018 534.542, 880.399 532.885, 877.250 533.490 C 875.076 533.907, 875.222 533.739, 877.945 532.688 C 880.138 531.842, 880.955 531.090, 880.195 530.620 C 879.538 530.214, 878.480 530.203, 877.845 530.595 C 877.130 531.038, 876.962 530.870, 877.405 530.155 C 877.797 529.520, 878.766 529, 879.559 529 C 881.893 529, 881.213 527.426, 878.250 525.969 L 875.500 524.617 877.912 524.218 C 879.793 523.906, 880.013 523.614, 878.912 522.890 C 877.724 522.109, 877.772 521.753, 879.215 520.646 C 881.383 518.983, 879.762 517.054, 876.050 516.882 C 873.642 516.770, 873.664 516.728, 876.443 516.132 C 879.386 515.500, 879.920 513.303, 877.030 513.721 C 876.073 513.859, 875.970 513.734, 876.756 513.385 C 877.447 513.080, 877.758 512.418, 877.447 511.915 C 877.136 511.412, 877.359 511, 877.941 511 C 878.523 511, 879 510.498, 879 509.885 C 879 509.221, 877.887 509.482, 876.250 510.529 L 873.500 512.288 875.750 509.830 C 878.063 507.302, 878.776 505.402, 877 506.500 C 876.062 507.080, 875.543 505.655, 875.938 503.581 C 876.034 503.075, 875.412 503.243, 874.556 503.953 C 873.600 504.747, 873 504.835, 873 504.181 C 873 503.597, 873.450 502.840, 874 502.500 C 874.550 502.160, 875 501.369, 875 500.741 C 875 499.919, 874.664 499.936, 873.800 500.800 C 871.903 502.697, 870.810 502.203, 871.480 499.750 C 872.011 497.808, 871.945 497.740, 870.998 499.250 C 870.394 500.212, 869.221 501, 868.391 501 C 867.561 501, 867.134 500.592, 867.443 500.092 C 867.751 499.593, 867.624 498.157, 867.159 496.900 C 866.316 494.622, 866.311 494.624, 865.638 497.308 C 865.266 498.788, 864.520 500, 863.981 500 C 863.441 500, 863.053 499.663, 863.118 499.250 C 863.184 498.837, 863.184 497.657, 863.118 496.628 C 863.015 494.999, 862.782 494.934, 861.327 496.128 C 859.842 497.345, 859.715 497.259, 860.204 495.361 C 860.507 494.184, 860.367 492.609, 859.893 491.861 C 859.253 490.851, 859.027 491.048, 859.015 492.628 M 870.500 557 C 870.160 557.550, 870.359 558, 870.941 558 C 871.523 558, 872 557.550, 872 557 C 872 556.450, 871.802 556, 871.559 556 C 871.316 556, 870.840 556.450, 870.500 557 M 582 558.882 C 582 559.432, 582.450 560.160, 583 560.500 C 583.550 560.840, 584 560.668, 584 560.118 C 584 559.568, 583.550 558.840, 583 558.500 C 582.450 558.160, 582 558.332, 582 558.882 M 3.782 573.447 C 3.077 574.792, 2.050 575.805, 1.500 575.697 C 0.887 575.576, 0.392 580.433, 0.220 588.250 C 0.044 596.257, 0.312 601, 0.939 601 C 1.488 601, 1.678 600.325, 1.362 599.500 C 1.045 598.675, 1.247 598, 1.810 598 C 2.373 598, 3.060 598.563, 3.338 599.250 C 3.630 599.975, 3.875 599.740, 3.921 598.691 C 3.972 597.519, 4.441 597.147, 5.250 597.633 C 6.099 598.143, 6.060 597.842, 5.128 596.692 C 3.900 595.178, 4.058 594.993, 6.628 594.930 C 9.074 594.870, 9.203 594.743, 7.500 594.078 C 5.592 593.332, 5.609 593.261, 7.882 592.539 C 9.731 591.951, 9.955 591.582, 8.882 590.891 C 7.720 590.142, 7.739 589.843, 9 589.015 C 9.825 588.474, 10.107 588.024, 9.628 588.015 C 9.148 588.007, 9.373 587.251, 10.128 586.336 C 11.368 584.832, 11.290 584.784, 9.316 585.836 C 8.114 586.476, 6.539 586.970, 5.816 586.932 C 5.092 586.895, 5.400 586.404, 6.500 585.842 C 9.223 584.450, 14.112 578.359, 11.792 579.249 C 10.708 579.666, 10.253 579.468, 10.523 578.699 C 11.113 577.019, 7.919 573.103, 7.302 574.750 C 6.439 577.051, 4.761 576.032, 5.245 573.500 C 5.847 570.347, 5.414 570.331, 3.782 573.447 M 543.872 572.750 C 542.629 574.336, 542.664 574.371, 544.250 573.128 C 545.916 571.821, 546.445 571, 545.622 571 C 545.415 571, 544.627 571.788, 543.872 572.750 M 869.079 576.583 C 869.127 577.748, 869.364 577.985, 869.683 577.188 C 869.972 576.466, 869.936 575.603, 869.604 575.271 C 869.272 574.939, 869.036 575.529, 869.079 576.583 M 543.437 594.102 C 542.940 594.907, 543.113 595.048, 543.957 594.526 C 544.691 594.073, 545.629 594.323, 546.188 595.122 C 546.994 596.273, 547.088 596.264, 546.764 595.063 C 546.245 593.143, 544.365 592.600, 543.437 594.102 M 549.079 594.583 C 549.127 595.748, 549.364 595.985, 549.683 595.188 C 549.972 594.466, 549.936 593.603, 549.604 593.271 C 549.272 592.939, 549.036 593.529, 549.079 594.583 M 596 594.500 C 596 595.325, 596.436 596, 596.969 596 C 597.501 596, 597.678 595.325, 597.362 594.500 C 597.045 593.675, 596.609 593, 596.393 593 C 596.177 593, 596 593.675, 596 594.500 M 513.951 595.559 C 512.478 597.333, 511.853 601.209, 513.171 600.395 C 513.627 600.113, 514 599.046, 514 598.024 C 514 597.003, 514.563 595.966, 515.250 595.720 C 515.938 595.475, 516.227 594.976, 515.893 594.613 C 515.558 594.249, 514.685 594.675, 513.951 595.559 M 21 598.417 C 21 599.261, 20.102 601.425, 19.004 603.226 C 17.906 605.027, 17.006 607.513, 17.004 608.750 C 17.002 609.987, 16.550 611, 16 611 C 15.450 611, 15 610.523, 15 609.941 C 15 609.359, 14.550 609.160, 14 609.500 C 13.450 609.840, 13 611.497, 13 613.181 C 13 615.791, 12.778 616.060, 11.500 615 C 10.215 613.934, 10 614.257, 10 617.255 C 10 621.224, 7.649 624.134, 6.617 621.444 C 5.759 619.208, 5.842 618.785, 7 619.500 C 7.550 619.840, 8 619.593, 8 618.952 C 8 618.300, 7.303 618.053, 6.418 618.393 C 5.548 618.727, 4.659 619, 4.443 619 C 4.227 619, 4.268 620.462, 4.535 622.250 C 4.801 624.038, 4.753 624.938, 4.426 624.250 C 3.206 621.677, 1.852 623.059, 2.468 626.250 C 3.032 629.177, 2.953 629.324, 1.675 627.734 C 0.432 626.187, 0.238 627.804, 0.119 640.734 C -0.014 655.128, 0.618 658.972, 2.888 657.569 C 3.500 657.191, 4 657.498, 4 658.250 C 4 659.002, 4.698 660.491, 5.552 661.559 C 7.042 663.423, 7.076 663.401, 6.415 661 C 6.036 659.625, 5.496 657.825, 5.215 657 C 4.922 656.138, 5.635 656.457, 6.891 657.750 C 9.625 660.563, 10.405 660.625, 8.954 657.914 C 8.340 656.767, 8.099 655.567, 8.419 655.248 C 8.739 654.928, 9 655.240, 9 655.940 C 9 656.681, 9.650 656.965, 10.552 656.618 C 11.406 656.291, 11.860 656.417, 11.563 656.898 C 11.265 657.380, 11.805 658.387, 12.761 659.137 C 14.297 660.341, 14.355 660.314, 13.259 658.908 C 11.436 656.571, 13.005 655.708, 15.369 657.748 C 17.182 659.312, 17.162 659.188, 15.186 656.597 C 12.968 653.690, 12.991 651.591, 15.217 653.817 C 15.868 654.468, 16.734 655, 17.143 655 C 17.967 655, 17.495 651.611, 16.431 649.889 C 15.970 649.142, 16.517 648.999, 18.125 649.445 C 20.300 650.048, 20.353 649.985, 18.750 648.692 C 15.937 646.422, 16.739 645.683, 19.750 647.769 C 21.262 648.817, 23.400 649.974, 24.500 650.340 C 26.470 650.995, 26.470 650.982, 24.559 649.502 C 23.491 648.676, 22.512 647.286, 22.384 646.413 C 22.187 645.067, 22.477 645.104, 24.309 646.664 C 26.191 648.267, 26.293 648.278, 25.110 646.750 C 24.365 645.788, 24.148 644.993, 24.628 644.985 C 25.107 644.976, 24.825 644.533, 24 644 C 22.787 643.216, 22.931 643.028, 24.750 643.015 C 25.988 643.007, 27 642.581, 27 642.070 C 27 641.558, 28.012 640.961, 29.250 640.743 C 31.495 640.348, 31.494 640.344, 29 639.237 C 27.625 638.626, 27.089 638.098, 27.809 638.063 C 28.529 638.029, 28.840 637.550, 28.500 637 C 28.160 636.450, 28.921 635.964, 30.191 635.921 C 31.461 635.878, 31.938 635.615, 31.250 635.338 C 29.398 634.590, 29.735 633.002, 31.750 632.985 C 33.187 632.972, 33.243 632.807, 32.064 632.061 C 30.947 631.354, 30.890 630.838, 31.806 629.734 C 32.453 628.954, 32.682 628.015, 32.314 627.648 C 31.947 627.280, 32.513 626.306, 33.573 625.484 C 35.356 624.100, 35.283 624.066, 32.600 625.027 L 29.699 626.065 32.838 622.854 C 36.481 619.129, 36.251 617.951, 32.376 620.489 C 29.883 622.122, 29.738 622.126, 30.345 620.543 C 30.705 619.604, 31 618.622, 31 618.359 C 31 618.097, 31.563 618.200, 32.250 618.588 C 33.234 619.143, 33.241 619.014, 32.285 617.982 C 31.323 616.943, 31.427 616.376, 32.785 615.261 C 33.728 614.486, 33.938 614.137, 33.250 614.485 C 32.563 614.833, 32 614.586, 32 613.937 C 32 613.056, 31.618 613.072, 30.500 614 C 29.554 614.785, 29 614.852, 29 614.181 C 29 613.597, 29.450 612.840, 30 612.500 C 30.550 612.160, 31 611.380, 31 610.767 C 31 610.153, 29.958 610.630, 28.686 611.826 C 25.465 614.852, 24.670 614.539, 26.515 610.971 L 28.082 607.941 25.291 608.477 C 23.756 608.771, 23.063 608.747, 23.750 608.423 C 24.438 608.099, 25 607.169, 25 606.358 C 25 605.546, 24.550 605.160, 24 605.500 C 22.600 606.365, 22.749 604.651, 24.200 603.200 C 25.133 602.267, 25.133 602, 24.200 602 C 23.540 602, 23 601.127, 23 600.059 C 23 598.991, 22.550 597.840, 22 597.500 C 21.450 597.160, 21 597.573, 21 598.417 M 845.829 602.903 C 844.454 605.104, 841.552 605.702, 840.500 604 C 840.160 603.450, 839.346 603.014, 838.691 603.030 C 838.036 603.047, 838.288 603.519, 839.250 604.080 C 841.879 605.611, 841.406 606.590, 836.979 608.780 C 834.149 610.181, 833.408 610.943, 834.479 611.354 C 835.316 611.675, 836.653 611.686, 837.452 611.380 C 839.914 610.435, 841.566 612.113, 839.593 613.555 C 838.012 614.711, 838.057 614.934, 840.192 616.517 L 842.500 618.228 840.171 617.687 C 838.434 617.283, 837.981 617.508, 838.390 618.573 C 838.761 619.542, 838.225 620.007, 836.719 620.022 C 834.521 620.044, 834.524 620.063, 837 622 C 839.203 623.723, 839.112 624.491, 836.750 624.118 C 836.337 624.053, 836 624.450, 836 625 C 836 625.550, 836.927 626, 838.059 626 C 839.265 626, 839.844 626.443, 839.458 627.068 C 839.095 627.656, 838.132 627.881, 837.318 627.568 C 836.504 627.256, 834.874 627.675, 833.696 628.500 C 832.519 629.325, 832.019 630, 832.585 630 C 833.152 630, 834.379 631.732, 835.313 633.848 C 837.267 638.277, 844.339 644.472, 851.309 647.861 C 854.714 649.517, 858.069 650.243, 862.809 650.349 L 869.500 650.500 869.550 645.478 C 869.578 642.716, 869.900 639.970, 870.267 639.377 C 871.373 637.587, 868.708 625.644, 866.723 623.500 C 865.705 622.400, 863.530 618.692, 861.890 615.261 C 860.250 611.829, 858.059 608.567, 857.022 608.012 C 855.984 607.456, 854.850 606.102, 854.500 605.001 C 854.151 603.900, 853.221 603, 852.433 603 C 851.645 603, 850.985 602.438, 850.967 601.750 C 850.948 601.063, 850.089 601.513, 849.056 602.750 C 848.024 603.987, 846.859 605, 846.467 605 C 846.076 605, 846.324 604.314, 847.020 603.476 C 847.716 602.638, 848.027 601.694, 847.712 601.378 C 847.397 601.063, 846.549 601.749, 845.829 602.903 M 624 605.500 C 624.685 606.325, 625.695 607, 626.245 607 C 626.803 607, 626.694 606.337, 626 605.500 C 625.315 604.675, 624.305 604, 623.755 604 C 623.197 604, 623.306 604.663, 624 605.500 M 835.500 606 C 835.160 606.550, 835.359 607, 835.941 607 C 836.523 607, 837 606.550, 837 606 C 837 605.450, 836.802 605, 836.559 605 C 836.316 605, 835.840 605.450, 835.500 606 M 514.241 611.986 C 512.668 614.505, 512.683 614.667, 514.496 614.667 C 515.319 614.667, 516.781 613.737, 517.746 612.601 C 519.445 610.599, 519.440 610.581, 517.563 612.017 C 515.807 613.361, 515.687 613.336, 516.281 611.750 C 517.173 609.370, 515.773 609.533, 514.241 611.986 M 519.250 614.031 C 518.013 614.529, 517 615.400, 517 615.968 C 517 616.535, 516.400 617, 515.667 617 C 514.933 617, 514.291 617.563, 514.239 618.250 C 514.187 618.938, 513.846 620.469, 513.481 621.654 C 512.971 623.308, 513.320 623.967, 514.984 624.495 C 517.659 625.344, 518.037 624.988, 518.295 621.372 C 518.408 619.792, 519.288 617.628, 520.250 616.561 C 521.212 615.495, 522 614.258, 522 613.811 C 522 612.874, 522.161 612.861, 519.250 614.031 M 804.613 616.183 C 804.902 616.650, 805.557 616.774, 806.069 616.457 C 807.377 615.649, 807.230 615.333, 805.544 615.333 C 804.743 615.333, 804.324 615.716, 804.613 616.183 M 534 617.941 C 534 618.459, 534.450 619.160, 535 619.500 C 535.550 619.840, 536 619.416, 536 618.559 C 536 617.702, 535.550 617, 535 617 C 534.450 617, 534 617.423, 534 617.941 M 885.265 622.250 C 885.854 627.930, 887.746 633, 889.277 633 C 889.861 633, 889.955 630.402, 889.518 626.326 C 888.650 618.216, 888.224 617, 886.253 617 C 885.001 617, 884.820 617.963, 885.265 622.250 M 537.907 620.393 C 536.640 621.709, 535.115 622.598, 534.517 622.368 C 533.919 622.139, 533.364 622.818, 533.284 623.879 C 533.088 626.483, 528.863 636.325, 527.563 637.207 C 526.132 638.178, 525.784 663.291, 527.119 669.211 C 527.992 673.085, 529.098 674.677, 533.340 678.168 C 536.178 680.502, 540.357 684.524, 542.626 687.104 L 546.753 691.795 550.352 684.147 C 552.332 679.941, 555.532 673.800, 557.464 670.500 C 561.526 663.561, 561.634 662.419, 558.932 655 C 555.892 646.655, 553.121 634.853, 553.784 633.079 C 554.295 631.714, 554.146 631.686, 552.687 632.872 C 550.772 634.430, 550.366 633.034, 552.200 631.200 C 553.133 630.267, 553.120 630, 552.141 630 C 551.449 630, 551.147 629.571, 551.472 629.046 C 551.796 628.521, 551.783 626.985, 551.444 625.633 L 550.827 623.173 548.806 625.194 C 546.921 627.079, 546.676 627.103, 545.143 625.546 C 543.618 623.998, 543.639 623.775, 545.427 622.449 C 546.487 621.664, 547.056 620.722, 546.691 620.358 C 546.326 619.993, 545.105 620.868, 543.977 622.302 C 542.684 623.946, 541.345 624.686, 540.354 624.306 C 538.930 623.759, 538.933 623.617, 540.378 622.808 C 541.257 622.317, 542.447 621.034, 543.023 619.957 C 544.590 617.029, 540.837 617.349, 537.907 620.393 M 840.813 619.683 C 841.534 619.972, 842.397 619.936, 842.729 619.604 C 843.061 619.272, 842.471 619.036, 841.417 619.079 C 840.252 619.127, 840.015 619.364, 840.813 619.683 M 468.750 624.893 C 467.788 625.869, 467 626.989, 467 627.381 C 467 628.322, 471.928 624.721, 471.969 623.750 C 472.021 622.508, 470.607 623.011, 468.750 624.893 M 474.694 633.532 C 473.151 634.889, 472.476 635.985, 473.194 635.967 C 474.573 635.932, 479 632.594, 479 631.590 C 479 630.412, 477.441 631.115, 474.694 633.532 M 489.756 634.754 C 488.339 637.039, 488.049 637.174, 488.027 635.561 C 488 633.643, 487.981 633.643, 486.243 635.561 C 485.276 636.628, 483.936 638.737, 483.264 640.250 C 482.454 642.074, 481.278 643.005, 479.771 643.015 C 478.522 643.024, 477.950 643.361, 478.500 643.765 C 479.507 644.505, 482 648.558, 482 649.455 C 482 649.720, 481.212 649.664, 480.250 649.331 C 479.288 648.997, 480.130 650.357, 482.123 652.352 C 489.836 660.078, 509.088 669.048, 511.109 665.857 C 513.182 662.586, 511.270 645, 508.842 645 C 508.379 645, 506.200 643.200, 504 641 C 501.800 638.800, 499.454 637.112, 498.787 637.250 C 498.119 637.388, 497.113 636.487, 496.549 635.250 C 495.986 634.013, 495.156 633, 494.704 633 C 494.252 633, 494.141 633.419, 494.457 633.931 C 494.774 634.443, 494.571 635.147, 494.008 635.495 C 493.444 635.843, 492.640 635.201, 492.221 634.068 C 491.490 632.093, 491.388 632.122, 489.756 634.754 M 479.406 636.332 C 479.733 637.339, 480 638.352, 480 638.582 C 480 638.812, 480.712 639, 481.583 639 C 482.454 639, 483.005 638.516, 482.808 637.925 C 482.611 637.334, 482.062 636.922, 481.587 637.010 C 481.112 637.099, 480.293 636.570, 479.767 635.835 C 479.064 634.853, 478.968 634.984, 479.406 636.332 M 787 644.500 C 786.306 645.337, 786.197 646, 786.755 646 C 787.305 646, 788.315 645.325, 789 644.500 C 789.694 643.663, 789.803 643, 789.245 643 C 788.695 643, 787.685 643.675, 787 644.500 M 0.483 785.500 C 0.483 846, 0.603 870.603, 0.750 840.173 C 0.897 809.743, 0.897 760.243, 0.750 730.173 C 0.603 700.103, 0.483 725, 0.483 785.500" stroke="none" fill="#e6e4e4" fill-rule="evenodd"/>
</svg>